<?xml version="1.0" encoding="UTF-8" standalone="no"?>
<svg xmlns:dc="http://purl.org/dc/elements/1.1/" xmlns:cc="http://creativecommons.org/ns#"
  xmlns:rdf="http://www.w3.org/1999/02/22-rdf-syntax-ns#" xmlns:svg="http://www.w3.org/2000/svg"
  xmlns="http://www.w3.org/2000/svg" xmlns:sodipodi="http://sodipodi.sourceforge.net/DTD/sodipodi-0.dtd"
  xmlns:inkscape="http://www.inkscape.org/namespaces/inkscape" version="1.1" id="svg10" xml:space="preserve"
  width="971.20264" height="386.26834" viewBox="0 0 971.20264 386.26834" sodipodi:docname="lett-titulo.svg"
  inkscape:version="1.0.2-2 (e86c870879, 2021-01-15)">
  <metadata id="metadata16">
    <rdf:RDF>
      <cc:Work rdf:about="">
        <dc:format>image/svg+xml</dc:format>
        <dc:type rdf:resource="http://purl.org/dc/dcmitype/StillImage" />
        <dc:title></dc:title>
      </cc:Work>
    </rdf:RDF>
  </metadata>
  <defs id="defs14">
    <clipPath clipPathUnits="userSpaceOnUse" id="clipPath26">
      <path d="M 0,290.094 H 728.402 V 0 H 0 Z" id="path24" />
    </clipPath>
    <clipPath clipPathUnits="userSpaceOnUse" id="clipPath50">
      <path d="M 0,290.094 H 728.402 V 0 H 0 Z" id="path48" />
    </clipPath>
  </defs>
  <sodipodi:namedview pagecolor="#ffffff" bordercolor="#666666" borderopacity="1" objecttolerance="10"
    gridtolerance="10" guidetolerance="10" inkscape:pageopacity="0" inkscape:pageshadow="2" inkscape:window-width="1680"
    inkscape:window-height="987" id="namedview12" showgrid="false" inkscape:zoom="0.90509668" inkscape:cx="552.82475"
    inkscape:cy="301.18479" inkscape:window-x="-8" inkscape:window-y="58" inkscape:window-maximized="1"
    inkscape:current-layer="layer2" />
  <g inkscape:groupmode="layer" id="layer2" inkscape:label="lettering" style="display:inline"
    transform="translate(0,-0.5231823)">
    <g id="g20" transform="matrix(1.3333333,0,0,-1.3315303,0,386.792)">
      <g id="g22" clip-path="url(#clipPath26)">
        <g id="g28" transform="translate(22.7057,13.1689)">
          <path
            d="m 0,0 c -4.311,5.825 -8.111,12.285 -11.4,19.38 -3.295,7.09 -5.955,14.31 -7.98,21.661 -4.305,32.424 -4.43,63.899 -0.38,94.429 4.05,30.525 10.64,60.611 19.76,90.25 1.52,3.29 4.81,4.94 9.88,4.94 5.065,0 10.129,-1.139 15.2,-3.42 5.065,-2.28 9.245,-5.32 12.54,-9.12 3.289,-3.8 4.049,-7.73 2.28,-11.78 -2.791,-6.08 -5.575,-14.25 -8.36,-24.509 C 28.75,171.57 26.089,160.229 23.56,147.82 21.024,135.405 18.81,122.42 16.91,108.87 15.01,95.315 13.615,82.33 12.73,69.92 11.839,57.505 11.649,46.295 12.16,36.291 12.665,26.279 14.185,18.365 16.72,12.54 28.625,28.5 39.52,45.03 49.4,62.13 c 9.88,17.1 19.19,34.45 27.93,52.06 8.74,17.605 17.035,35.4 24.89,53.391 7.849,17.984 15.58,35.719 23.18,53.199 3.8,8.865 7.535,18.241 11.21,28.12 3.669,9.88 8.55,18.365 14.63,25.46 2.53,2.28 4.495,3.04 5.89,2.28 1.39,-0.76 2.339,-2.22 2.85,-4.369 0.505,-2.156 0.76,-4.436 0.76,-6.841 v -5.51 c -1.775,-11.655 -3.295,-23.18 -4.56,-34.58 -1.271,-11.4 -3.93,-22.42 -7.98,-33.06 C 141.609,175.561 134.834,158.965 127.87,142.5 120.899,126.03 113.43,109.82 105.45,93.86 97.47,77.9 88.854,62.38 79.61,47.311 70.359,32.235 60.29,17.86 49.4,4.181 40.785,-6.709 32.235,-12.475 23.75,-13.109 15.259,-13.739 7.345,-9.369 0,0"
            style="fill:#000000;fill-opacity:1;fill-rule:nonzero;stroke:none" id="path30" />
        </g>
        <g id="g32" transform="translate(191.9938,107.4091)">
          <path
            d="M 0,0 C 3.924,4.049 9.31,7.345 16.15,9.88 14.119,3.8 10.889,-1.33 6.46,-5.51 2.024,-9.69 -2.981,-13.811 -8.55,-17.86 -6.781,-10.011 -3.931,-4.055 0,0 m 181.256,5.7 c -0.13,3.545 -0.825,7.155 -2.089,10.83 -1.271,3.67 -3.106,6.965 -5.51,9.88 -2.411,2.909 -5.641,5 -9.691,6.27 -7.855,0.76 -15.389,-0.95 -22.61,-5.13 -7.219,-4.18 -14.06,-9.5 -20.52,-15.96 -6.46,-6.46 -12.415,-13.43 -17.859,-20.9 -5.451,-7.475 -10.451,-14.001 -15.011,-19.57 2.025,6.84 3.86,13.805 5.511,20.9 1.644,7.089 1.959,13.169 0.95,18.24 -0.511,2.025 -1.651,3.545 -3.421,4.56 -1.775,1.01 -3.799,1.455 -6.079,1.33 -2.281,-0.13 -4.37,-0.76 -6.27,-1.9 -1.901,-1.14 -3.106,-2.725 -3.611,-4.75 -1.775,-7.6 -3.485,-15.58 -5.129,-23.94 -0.598,-3.027 -1.176,-6.055 -1.756,-9.082 -1.172,-1.227 -2.416,-2.503 -3.751,-3.838 -2.535,-2.28 -5.7,-5.195 -9.5,-8.74 -3.8,-3.55 -7.731,-7.22 -11.78,-11.02 -4.055,-3.8 -8.111,-7.41 -12.16,-10.83 -4.055,-3.42 -7.731,-6.27 -11.02,-8.55 -2.791,-1.52 -6.46,-3.295 -11.02,-5.32 -4.56,-2.031 -9.061,-3.23 -13.49,-3.61 -4.436,-0.38 -8.045,0.38 -10.83,2.281 -2.791,1.899 -3.8,6.138 -3.04,12.729 0,2.529 1.389,5.635 4.18,9.31 2.785,3.67 6.08,7.279 9.88,10.83 3.8,3.545 7.724,6.965 11.78,10.26 4.049,3.29 7.22,5.95 9.5,7.98 4.56,4.305 7.79,8.419 9.69,12.35 1.9,3.925 3.355,8.675 4.37,14.25 1.264,5.825 0.439,10.765 -2.47,14.82 -2.916,4.05 -7.03,6.709 -12.35,7.98 C 5.759,27.105 -3.295,24.189 -11.02,18.62 -18.751,13.045 -25.146,5.89 -30.21,-2.85 c -5.065,-8.74 -8.865,-18.305 -11.4,-28.69 -2.53,-10.391 -3.545,-20.395 -3.04,-30.02 0,-12.67 3.74,-21.791 11.21,-27.36 7.469,-5.575 17.035,-7.979 28.69,-7.22 6.584,1.009 12.979,3.23 19.19,6.65 6.205,3.42 12.16,7.469 17.86,12.16 5.7,4.684 11.144,9.814 16.34,15.391 5.189,5.568 10.07,10.889 14.63,15.959 0.301,0.348 0.592,0.696 0.89,1.043 -1.208,-6.403 -2.453,-12.583 -3.743,-18.523 -1.645,-7.6 -3.355,-14.439 -5.13,-20.52 -1.265,-3.295 -1.52,-6.401 -0.761,-9.31 0.761,-2.909 2.536,-4.875 5.321,-5.89 2.79,-1.009 5.195,-0.38 7.219,1.9 6.841,9.625 13.681,20.009 20.52,31.16 6.841,11.145 13.871,21.91 21.091,32.3 7.219,10.385 14.879,19.82 22.99,28.31 8.104,8.485 16.969,14.88 26.6,19.19 -3.551,-5.071 -6.716,-10.39 -9.5,-15.96 -2.791,-5.575 -4.816,-11.275 -6.08,-17.1 -1.271,-5.83 -1.461,-11.59 -0.57,-17.29 0.884,-5.7 3.354,-11.341 7.409,-16.91 1.265,-1.52 3.42,-2.66 6.46,-3.42 3.04,-0.76 6.08,-1.081 9.12,-0.95 3.04,0.125 5.445,0.695 7.221,1.71 1.769,1.01 1.9,2.53 0.38,4.56 -3.8,3.289 -5.831,7.03 -6.081,11.21 -0.255,4.18 0.315,8.42 1.71,12.73 1.39,4.305 3.29,8.55 5.701,12.73 2.404,4.18 4.494,8.039 6.27,11.59 0.759,2.529 1.074,5.569 0.949,9.12"
            style="fill:#000000;fill-opacity:1;fill-rule:nonzero;stroke:none" id="path34" />
        </g>
        <g id="g36" transform="translate(426.2599,164.9692)">
          <path
            d="m 0,0 c 2.529,2.28 5.064,4.685 7.6,7.22 2.529,2.53 5.189,4.809 7.98,6.84 3.8,3.29 7.03,3.859 9.69,1.71 2.66,-2.155 5.444,-5.071 8.36,-8.74 2.909,-3.675 6.139,-7.16 9.69,-10.45 3.544,-3.295 8.229,-4.31 14.06,-3.04 12.664,2.529 21.024,10.765 25.08,24.7 0.504,2.025 0.439,3.61 -0.19,4.75 -0.636,1.14 -1.965,1.075 -3.99,-0.19 -2.535,-1.775 -5.13,-3.485 -7.79,-5.13 -2.66,-1.65 -5.261,-3.485 -7.79,-5.51 -3.551,-2.28 -6.526,-3.23 -8.93,-2.85 -2.411,0.38 -4.691,1.455 -6.84,3.23 -2.156,1.77 -4.311,3.99 -6.46,6.65 -2.156,2.66 -4.75,5.255 -7.79,7.79 -3.296,2.529 -6.65,3.735 -10.07,3.61 C 19.19,30.459 15.829,29.385 12.54,27.36 11.269,26.6 9.31,25.015 6.65,22.61 3.99,20.199 1.52,17.54 -0.76,14.63 -3.04,11.715 -4.75,8.865 -5.89,6.08 -7.03,3.29 -6.591,1.009 -4.56,-0.76 -2.791,-1.52 -1.271,-1.271 0,0"
            style="fill:#000000;fill-opacity:1;fill-rule:nonzero;stroke:none" id="path38" />
        </g>
        <g id="g40" transform="translate(591.9357,85.3691)">
          <path
            d="m 0,0 c 0,-0.51 -0.255,-1.015 -0.76,-1.52 -0.511,-0.51 -1.015,-0.76 -1.52,-0.76 -1.271,0 -3.61,-0.255 -7.03,-0.76 -3.419,-0.51 -6.97,-0.825 -10.64,-0.95 -3.675,-0.131 -6.971,-0.065 -9.88,0.19 -2.915,0.25 -4.37,1.009 -4.37,2.28 0.25,2.785 -0.891,5.32 -3.42,7.6 -0.511,0.505 -0.76,1.39 -0.76,2.66 2.784,4.305 5.7,8.485 8.74,12.54 3.04,4.05 7.089,7.6 12.161,10.64 2.529,1.265 5.188,1.769 7.979,1.52 2.785,-0.255 5.064,-1.395 6.84,-3.42 C 0.885,26.47 2.72,21.785 2.85,15.96 2.975,10.129 2.024,4.81 0,0 m -10.83,-32.11 c -2.155,-4.18 -4.691,-8.3 -7.6,-12.35 -2.916,-4.056 -5.955,-7.665 -9.12,-10.83 -3.171,-3.171 -6.02,-5.005 -8.55,-5.51 -1.27,2.025 -2.28,4.81 -3.04,8.361 -0.76,3.543 -1.27,7.279 -1.52,11.209 -0.255,3.925 -0.255,7.725 0,11.4 0.25,3.669 0.76,6.65 1.52,8.93 5.065,-1.015 10.509,-1.52 16.34,-1.52 5.824,0 11.27,0.25 16.34,0.76 -0.76,-2.791 -2.221,-6.27 -4.37,-10.45 M 61.561,13.68 C 58.01,12.92 54.274,11.839 50.35,10.45 46.42,9.055 42.685,7.85 39.14,6.84 36.1,6.08 32.805,5.065 29.26,3.8 25.709,2.529 22.42,1.77 19.38,1.52 c 0.25,1.52 0.63,3.8 1.141,6.84 0.503,3.04 0.628,6.395 0.379,10.07 -0.255,3.67 -1.015,7.469 -2.28,11.4 -1.27,3.925 -3.42,7.535 -6.46,10.83 -3.551,4.305 -7.665,7.22 -12.349,8.74 -4.692,1.52 -9.822,1.769 -15.391,0.76 C -24.45,49.145 -32.24,45.41 -38.95,38.95 -45.665,32.49 -51.175,25.46 -55.479,17.86 -57,15.325 -58.14,12.54 -58.9,9.5 c -0.725,-2.898 -1.449,-5.673 -2.173,-8.339 -0.61,-0.612 -1.244,-1.266 -1.896,-1.955 -0.597,-0.244 -1.143,-0.488 -1.631,-0.726 -0.504,-0.255 -1.009,-0.701 -1.52,-1.33 -0.385,-0.484 -0.696,-1.303 -0.935,-2.445 -0.441,-0.504 -0.884,-1.012 -1.341,-1.545 -4.56,-5.32 -9.44,-10.895 -14.63,-16.72 -5.195,-5.831 -10.45,-11.34 -15.77,-16.53 -5.32,-5.195 -10.391,-8.806 -15.2,-10.83 -6.08,-2.28 -10.26,-2.41 -12.54,-0.38 -2.28,2.025 -3.04,6.329 -2.28,12.92 0.76,4.305 2.595,9.245 5.51,14.82 2.91,5.57 5.255,10.385 7.03,14.44 1.52,3.289 1.835,6.519 0.95,9.69 -0.891,3.165 -2.535,5.825 -4.94,7.98 -2.411,2.15 -5.26,3.355 -8.55,3.61 -3.295,0.25 -6.591,-0.89 -9.88,-3.42 -0.255,-0.255 -1.965,-2.47 -5.13,-6.65 -3.171,-4.18 -6.905,-8.995 -11.21,-14.44 -4.311,-5.45 -8.871,-10.961 -13.68,-16.53 -4.815,-5.575 -9.12,-9.945 -12.92,-13.11 -3.8,-3.17 -6.591,-4.56 -8.36,-4.18 -1.775,0.38 -1.9,3.859 -0.38,10.45 1.009,4.05 3.545,10.07 7.6,18.05 4.049,7.98 8.865,15.96 14.44,23.94 5.569,7.98 11.4,14.945 17.48,20.9 6.08,5.95 11.525,8.93 16.34,8.93 2.28,0 4.115,-0.57 5.51,-1.71 1.389,-1.14 2.47,-2.411 3.23,-3.8 0.76,-1.395 1.33,-2.791 1.71,-4.18 0.38,-1.395 0.695,-2.47 0.95,-3.23 0.76,-1.52 1.52,-2.221 2.28,-2.09 0.76,0.125 1.579,0.695 2.47,1.71 0.885,1.01 1.645,2.28 2.28,3.8 0.629,1.52 1.199,3.04 1.71,4.56 1.009,4.049 0.629,7.79 -1.14,11.21 -1.776,3.42 -4.311,6.27 -7.6,8.55 -3.295,2.28 -7.16,3.735 -11.59,4.37 -4.435,0.629 -8.681,0.439 -12.73,-0.57 -12.16,-2.535 -22.551,-8.36 -31.16,-17.48 -8.615,-9.12 -15.711,-19.511 -21.28,-31.16 -3.29,-7.095 -6.08,-14.315 -8.36,-21.66 -2.28,-7.351 -4.049,-14.315 -5.32,-20.9 -0.249,-2.535 -0.125,-5.956 0.38,-10.26 0.51,-4.311 1.9,-7.6 4.18,-9.88 2.28,-2.279 4.691,-4.245 7.22,-5.89 2.529,-1.65 5.32,-2.725 8.36,-3.23 4.049,-0.76 7.915,-0.7 11.59,0.19 3.669,0.885 7.155,2.15 10.45,3.8 3.29,1.645 6.33,3.545 9.12,5.7 2.785,2.15 5.32,4.114 7.6,5.89 0.76,-4.055 2.149,-7.856 4.18,-11.4 2.025,-3.55 4.684,-6.46 7.98,-8.74 3.289,-2.28 6.965,-3.734 11.02,-4.37 4.049,-0.629 8.609,-0.06 13.68,1.71 8.105,3.04 15.639,7.155 22.61,12.351 6.965,5.188 13.3,11.144 19,17.859 1.926,2.267 3.762,4.624 5.557,7.022 0.031,-1.198 0.065,-2.395 0.139,-3.602 0.38,-6.21 1.52,-11.97 3.42,-17.29 1.9,-5.319 4.75,-9.25 8.55,-11.779 5.065,-4.056 11.145,-6.081 18.24,-6.081 5.065,0 10.319,2.28 15.77,6.84 5.445,4.56 10.64,10.005 15.58,16.34 4.94,6.329 9.435,12.855 13.491,19.57 4.048,6.709 7.219,12.095 9.5,16.15 5.319,2.785 10.954,4.94 16.909,6.46 5.95,1.52 11.97,3.669 18.051,6.46 1.264,0.76 3.098,2.025 5.509,3.8 2.405,1.77 4.56,3.61 6.46,5.51 1.9,1.9 3.1,3.545 3.61,4.94 0.504,1.389 -0.51,2.09 -3.039,2.09"
            style="fill:#000000;fill-opacity:1;fill-rule:nonzero;stroke:none" id="path42" />
        </g>
      </g>
    </g>
  </g>
  <g inkscape:groupmode="layer" id="layer1" inkscape:label="exclamacao" style="display:inline"
    transform="translate(0,-0.5231823)">
    <g id="g44" transform="matrix(1.3333333,0,0,-1.3333333,0,386.792)">
      <g id="g46" clip-path="url(#clipPath50)">
        <g id="g52" transform="translate(708.215,247.2495)">
          <path
            d="m 0,0 c 1.77,1.769 3.99,2.66 6.65,2.66 2.661,0 5.065,-0.511 7.22,-1.52 2.15,-1.015 3.859,-2.536 5.13,-4.56 1.265,-2.031 1.521,-4.311 0.76,-6.84 -1.015,-3.8 -2.659,-9.31 -4.94,-16.53 -2.28,-7.22 -5.006,-15.39 -8.17,-24.51 -3.171,-9.12 -6.59,-18.81 -10.259,-29.07 -3.676,-10.26 -7.411,-20.396 -11.211,-30.4 -3.8,-10.011 -7.54,-19.511 -11.21,-28.5 -3.675,-8.996 -6.906,-16.661 -9.69,-22.99 -1.015,-2.28 -2.411,-3.171 -4.179,-2.66 -1.776,0.504 -3.04,1.769 -3.801,3.8 -1.52,8.609 -2.155,16.845 -1.9,24.7 0.249,7.849 1.009,15.705 2.28,23.56 1.265,7.089 3.355,16.209 6.27,27.36 2.909,11.145 6.329,22.42 10.26,33.82 3.925,11.4 8.229,21.909 12.92,31.54 C -9.186,-10.516 -4.56,-3.8 0,0 m -48.64,-222.68 c -3.799,-0.511 -7.03,0.819 -9.69,3.99 -2.66,3.164 -4.311,6.84 -4.94,11.02 -0.629,4.18 -0.19,8.36 1.331,12.54 1.519,4.18 4.559,7.154 9.119,8.93 5.57,1.769 9.939,1.009 13.11,-2.28 3.165,-3.295 4.999,-7.41 5.51,-12.35 0.505,-4.94 -0.446,-9.69 -2.85,-14.251 -2.411,-4.559 -6.27,-7.094 -11.59,-7.599"
            style="fill:#000000;fill-opacity:1;fill-rule:nonzero;stroke:none" id="path54" />
        </g>
      </g>
    </g>
  </g>
</svg>
