<svg xmlns="http://www.w3.org/2000/svg" width="972" height="387" fill="none" viewBox="0 0 972 387">
  <g class="lett-titulo 1">
    <g class="lattering">
      <g class="g20">
        <g class="g22">
          <g class="g28">
            <path fill="#000"
              d="M30.274 368.734c-5.748-7.756-10.814-16.358-15.2-25.805-4.393-9.441-7.94-19.054-10.64-28.842-5.74-43.174-5.906-85.084-.506-125.735 5.4-40.645 14.186-80.706 26.346-120.171 2.027-4.38 6.414-6.578 13.174-6.578 6.753 0 13.505 1.517 20.266 4.554 6.754 3.036 12.327 7.084 16.72 12.144 4.386 5.06 5.399 10.292 3.04 15.685-3.721 8.096-7.433 18.974-11.146 32.635-3.72 13.662-7.268 28.763-10.64 45.286-3.382 16.531-6.334 33.821-8.867 51.863-2.533 18.049-4.393 35.339-5.573 51.863-1.188 16.531-1.442 31.458-.76 44.778.673 13.332 2.7 23.869 6.08 31.626a675.935 675.935 0 0043.573-66.031 1243.412 1243.412 0 0037.24-69.319 1596.58 1596.58 0 0033.187-71.092 55291.67 55291.67 0 0030.906-70.836c5.067-11.804 10.047-24.289 14.947-37.443 4.892-13.155 11.4-24.453 19.507-33.9 3.373-3.037 5.993-4.049 7.853-3.037 1.853 1.012 3.119 2.956 3.8 5.818.673 2.87 1.013 5.907 1.013 9.109v7.337a1143.722 1143.722 0 00-6.08 46.044c-1.694 15.18-5.24 29.853-10.64 44.02a2907.513 2907.513 0 01-27.106 66.284 1127.01 1127.01 0 01-29.894 64.766 818.455 818.455 0 01-34.453 61.981c-12.335 20.074-25.76 39.215-40.28 57.429-11.487 14.5-22.887 22.178-34.2 23.022-11.321.839-21.873-4.98-31.667-17.455z"
              class="path30" />
          </g>
          <g class="g32">
            <path fill="#000"
              d="M255.992 243.25c5.232-5.391 12.413-9.78 21.533-13.155-2.708 8.096-7.015 14.926-12.92 20.492-5.915 5.566-12.588 11.053-20.013 16.444 2.358-10.451 6.158-18.381 11.4-23.781zm241.674-7.589c-.173-4.721-1.1-9.527-2.785-14.421-1.695-4.887-4.141-9.274-7.347-13.155-3.214-3.874-7.521-6.658-12.921-8.349-10.473-1.012-20.519 1.265-30.147 6.831-9.625 5.565-18.746 12.649-27.36 21.251a235.3 235.3 0 00-23.812 27.829c-7.268 9.953-13.934 18.643-20.014 26.058a486.235 486.235 0 007.348-27.829c2.192-9.439 2.612-17.535 1.266-24.287-.681-2.697-2.201-4.72-4.561-6.072-2.367-1.345-5.065-1.937-8.105-1.771-3.042.173-5.827 1.012-8.36 2.53-2.535 1.518-4.142 3.628-4.815 6.325a923.25 923.25 0 00-6.839 31.877c-.797 4.03-1.568 8.062-2.341 12.093a317.303 317.303 0 01-5.001 5.11c-3.38 3.036-7.6 6.917-12.667 11.638-5.067 4.727-10.308 9.613-15.707 14.673a420.286 420.286 0 01-16.213 14.421c-5.407 4.553-10.308 8.348-14.693 11.384-3.722 2.024-8.614 4.387-14.694 7.084-6.08 2.704-12.081 4.301-17.986 4.807-5.915.506-10.727-.506-14.44-3.038-3.722-2.528-5.067-8.172-4.054-16.949 0-3.367 1.852-7.503 5.574-12.396 3.713-4.887 8.106-9.692 13.173-14.421a304.153 304.153 0 0115.707-13.661c5.398-4.381 9.626-7.923 12.666-10.626 6.08-5.732 10.387-11.21 12.92-16.444 2.534-5.226 4.474-11.551 5.827-18.974 1.685-7.757.585-14.334-3.293-19.734-3.888-5.392-9.374-8.933-16.467-10.625-13.855.339-25.927 4.222-36.227 11.637-10.308 7.424-18.834 16.951-25.586 28.588-6.754 11.638-11.82 24.374-15.2 38.202-3.374 13.836-4.727 27.156-4.054 39.972 0 16.871 4.987 29.016 14.947 36.431 9.959 7.423 22.713 10.624 38.253 9.614 8.779-1.344 17.306-4.301 25.587-8.855 8.273-4.554 16.213-9.945 23.813-16.191 7.6-6.237 14.859-13.068 21.787-20.494a1633.071 1633.071 0 0019.507-21.25c.401-.463.789-.927 1.186-1.389a916.799 916.799 0 01-4.99 24.664c-2.194 10.12-4.474 19.226-6.84 27.323-1.687 4.388-2.027 8.523-1.015 12.397 1.015 3.873 3.381 6.491 7.095 7.843 3.72 1.343 6.926.505 9.625-2.53 9.121-12.816 18.241-26.643 27.36-41.491a904.513 904.513 0 0128.121-43.008c9.626-13.828 19.839-26.391 30.654-37.696 10.805-11.298 22.625-19.813 35.466-25.552a167.745 167.745 0 00-12.666 21.251c-3.722 7.424-6.422 15.013-8.107 22.769-1.695 7.763-1.948 15.433-.76 23.023 1.179 7.589 4.472 15.1 9.879 22.516 1.686 2.024 4.56 3.542 8.613 4.554 4.053 1.012 8.107 1.439 12.16 1.265 4.053-.167 7.26-.926 9.628-2.277 2.359-1.345 2.533-3.369.507-6.072-5.067-4.38-7.775-9.361-8.108-14.927-.34-5.565.42-11.211 2.28-16.95 1.853-5.732 4.386-11.385 7.601-16.95 3.205-5.566 5.992-10.705 8.36-15.433 1.012-3.367 1.432-7.415 1.265-12.143"
              class="path34" />
          </g>
          <g class="g36">
            <path fill="#000"
              d="M568.346 166.607a272.041 272.041 0 0010.134-9.613 89.362 89.362 0 0110.64-9.108c5.066-4.381 9.373-5.138 12.92-2.277 3.546 2.87 7.258 6.752 11.146 11.638a123.44 123.44 0 0012.92 13.914c4.726 4.388 10.972 5.739 18.747 4.048 16.885-3.367 28.032-14.334 33.44-32.889.672-2.696.585-4.807-.253-6.325-.848-1.517-2.62-1.431-5.32.253a217.287 217.287 0 01-10.387 6.831 106.091 106.091 0 00-10.387 7.337c-4.734 3.036-8.701 4.301-11.906 3.795-3.215-.506-6.255-1.938-9.12-4.301-2.875-2.357-5.748-5.313-8.614-8.855-2.874-3.542-6.333-6.997-10.386-10.372-4.395-3.368-8.867-4.974-13.427-4.807-4.56.174-9.041 1.604-13.427 4.301-1.694 1.012-4.306 3.122-7.853 6.324a85.372 85.372 0 00-9.88 10.626c-3.04 3.881-5.32 7.676-6.84 11.385-1.52 3.715-.935 6.752 1.773 9.107 2.359 1.012 4.386.681 6.08-1.012z"
              class="path38" />
          </g>
          <g class="g40">
            <path fill="#000"
              d="M789.248 272.597c0 .679-.34 1.352-1.014 2.024-.681.679-1.353 1.012-2.026 1.012-1.695 0-4.814.34-9.374 1.012-4.558.679-9.293 1.099-14.186 1.265-4.9.175-9.295.087-13.174-.253-3.886-.333-5.826-1.343-5.826-3.036.333-3.708-1.188-7.084-4.56-10.119-.682-.673-1.014-1.851-1.014-3.542a293.511 293.511 0 0111.654-16.698c4.053-5.392 9.452-10.119 16.214-14.167 3.372-1.685 6.918-2.356 10.639-2.024 3.713.339 6.752 1.857 9.12 4.554 4.727 4.727 7.173 10.965 7.347 18.721.166 7.764-1.102 14.847-3.8 21.251zm-14.44 42.756c-2.874 5.566-6.255 11.051-10.134 16.444-3.888 5.401-7.94 10.206-12.16 14.421-4.228 4.222-8.026 6.664-11.4 7.336-1.693-2.696-3.04-6.404-4.053-11.133-1.013-4.717-1.693-9.692-2.027-14.925-.34-5.226-.34-10.286 0-15.179.334-4.886 1.014-8.855 2.027-11.891 6.753 1.352 14.012 2.024 21.787 2.024 7.765 0 15.026-.333 21.786-1.012-1.013 3.717-2.961 8.349-5.826 13.915zm96.521-60.971c-4.735 1.012-9.716 2.451-14.948 4.301-5.24 1.857-10.22 3.462-14.947 4.807-4.053 1.012-8.446 2.363-13.173 4.047-4.735 1.693-9.12 2.703-13.173 3.036.333-2.024.84-5.059 1.521-9.107.671-4.048.837-8.515.505-13.409-.34-4.887-1.353-9.945-3.04-15.179-1.693-5.227-4.56-10.033-8.613-14.421-4.735-5.732-10.22-9.613-16.465-11.637-6.256-2.024-13.096-2.356-20.522-1.012-11.826 1.351-22.213 6.324-31.16 14.926-8.953 8.602-16.3 17.963-22.038 28.082-2.028 3.376-3.548 7.084-4.562 11.132a567.599 567.599 0 01-2.897 11.103c-.813.815-1.659 1.686-2.528 2.604-.796.324-1.524.649-2.175.966-.672.34-1.345.934-2.026 1.771-.514.645-.928 1.735-1.247 3.256-.588.671-1.179 1.347-1.788 2.057a1544.793 1544.793 0 01-19.507 22.263c-6.926 7.764-13.933 15.1-21.026 22.01-7.094 6.918-13.855 11.726-20.267 14.421-8.107 3.036-13.68 3.209-16.72.506-3.04-2.697-4.053-8.427-3.04-17.204 1.013-5.732 3.46-12.31 7.347-19.733 3.88-7.416 7.006-13.828 9.373-19.227 2.027-4.38 2.447-8.68 1.267-12.903-1.188-4.214-3.38-7.756-6.587-10.625-3.215-2.863-7.013-4.468-11.4-4.807-4.393-.333-8.788 1.185-13.173 4.554-.34.339-2.62 3.289-6.84 8.854-4.228 5.566-9.207 11.977-14.947 19.228a663.566 663.566 0 01-18.24 22.01c-6.42 7.423-12.16 13.242-17.227 17.456-5.066 4.221-8.788 6.072-11.146 5.566-2.367-.506-2.534-5.138-.507-13.914 1.345-5.393 4.727-13.409 10.133-24.035 5.399-10.625 11.82-21.251 19.254-31.876 7.425-10.626 15.2-19.9 23.306-27.829 8.107-7.923 15.367-11.891 21.787-11.891 3.04 0 5.487.759 7.347 2.277 1.852 1.518 3.293 3.21 4.306 5.06 1.014 1.857 1.774 3.716 2.28 5.566.507 1.857.927 3.288 1.267 4.3 1.013 2.024 2.027 2.958 3.04 2.783 1.013-.166 2.105-.925 3.293-2.277 1.18-1.344 2.194-3.036 3.04-5.059a94.824 94.824 0 002.28-6.072c1.346-5.392.839-10.373-1.52-14.927-2.368-4.553-5.748-8.348-10.133-11.384-4.393-3.036-9.547-4.974-15.453-5.819-5.914-.838-11.575-.585-16.974.759-16.213 3.375-30.068 11.132-41.546 23.275-11.487 12.144-20.948 25.98-28.374 41.491a231.868 231.868 0 00-11.146 28.841c-3.04 9.788-5.399 19.06-7.094 27.828-.332 3.376-.166 7.931.507 13.662.68 5.74 2.533 10.12 5.573 13.156 3.04 3.034 6.255 5.652 9.627 7.842 3.372 2.197 7.093 3.629 11.147 4.301 5.398 1.012 10.553.932 15.453-.253 4.892-1.178 9.54-2.863 13.933-5.06 4.387-2.19 8.44-4.72 12.16-7.589 3.714-2.863 7.094-5.478 10.134-7.843 1.013 5.399 2.865 10.46 5.573 15.179 2.7 4.727 6.245 8.602 10.64 11.638 4.385 3.036 9.287 4.972 14.693 5.819 5.399.837 11.479.08 18.24-2.277a121.77 121.77 0 0030.147-16.446c9.287-6.908 17.733-14.839 25.333-23.78 2.568-3.018 5.016-6.157 7.41-9.35.041 1.595.086 3.189.185 4.796.507 8.269 2.027 15.939 4.56 23.023 2.533 7.082 6.333 12.316 11.4 15.684 6.753 5.4 14.86 8.097 24.32 8.097 6.753 0 13.759-3.036 21.027-9.108 7.26-6.072 14.186-13.322 20.773-21.757a264.985 264.985 0 0017.988-26.058c5.397-8.934 9.625-16.105 12.667-21.504 7.092-3.709 14.605-6.578 22.545-8.602 7.933-2.024 15.96-4.886 24.068-8.602 1.685-1.012 4.131-2.696 7.345-5.06 3.207-2.356 6.08-4.806 8.614-7.336 2.533-2.53 4.133-4.721 4.813-6.578.672-1.85-.68-2.783-4.052-2.783"
              class="path42" />
          </g>
        </g>
      </g>
    </g>
    <g class="exclamacao">
      <g class="g44">
        <g class="g46">
          <g class="g52">
            <path fill="#000"
              d="M944.287 56.603c2.36-2.359 5.32-3.547 8.866-3.547 3.548 0 6.754.681 9.627 2.027 2.867 1.353 5.145 3.381 6.84 6.08 1.687 2.708 2.028 5.748 1.013 9.12-1.353 5.067-3.545 12.413-6.586 22.04-3.04 9.626-6.675 20.52-10.894 32.68a4675.545 4675.545 0 01-13.678 38.76 2288.41 2288.41 0 01-14.948 40.533 1648.381 1648.381 0 01-14.947 38c-4.9 11.995-9.208 22.215-12.92 30.653-1.353 3.04-3.215 4.228-5.572 3.547-2.368-.672-4.053-2.359-5.068-5.067-2.027-11.478-2.873-22.46-2.533-32.933a245.113 245.113 0 013.04-31.413c1.686-9.452 4.473-21.612 8.36-36.48 3.878-14.86 8.438-29.894 13.68-45.094 5.233-15.2 10.972-29.212 17.226-42.053 6.246-12.832 12.414-21.787 18.494-26.853zm-64.854 296.906c-5.065.682-9.373-1.092-12.92-5.32-3.546-4.218-5.748-9.12-6.586-14.693-.839-5.573-.254-11.147 1.774-16.72 2.026-5.573 6.079-9.539 12.159-11.907 7.427-2.358 13.252-1.345 17.48 3.04 4.22 4.394 6.665 9.88 7.347 16.467.673 6.587-.595 12.92-3.8 19.001-3.215 6.079-8.36 9.459-15.454 10.132"
              class="path54" />
          </g>
        </g>
      </g>
    </g>
  </g>
</svg>
