<?xml version="1.0" encoding="UTF-8" standalone="no"?>
<svg
   xmlns:dc="http://purl.org/dc/elements/1.1/"
   xmlns:cc="http://creativecommons.org/ns#"
   xmlns:rdf="http://www.w3.org/1999/02/22-rdf-syntax-ns#"
   xmlns:svg="http://www.w3.org/2000/svg"
   xmlns="http://www.w3.org/2000/svg"
   width="210mm"
   height="297mm"
   viewBox="0 0 210 297"
   version="1.1"
   id="svg8">
  <defs
     id="defs2" />
  <metadata
     id="metadata5">
    <rdf:RDF>
      <cc:Work
         rdf:about="">
        <dc:format>image/svg+xml</dc:format>
        <dc:type
           rdf:resource="http://purl.org/dc/dcmitype/StillImage" />
        <dc:title></dc:title>
      </cc:Work>
    </rdf:RDF>
  </metadata>
  <g
     id="layer1">
    <g
       id="g20"
       transform="matrix(0.07428017,0,0,-0.0827444,12.953923,286.47213)">
      <path
         d="m 1024.48,969.941 c -1.38,5.809 -35.082,-4.742 -71.726,-15.281 -40.879,-11.769 -85.426,-23.539 -92.863,-12.59 -25.661,37.59 -49.571,76.34 -75.235,113.99 -26.011,38.2 -51.914,76.39 -76.441,115.58 -11.078,17.67 -19.848,36.7 -30.981,54.2 -7.046,11.11 -11.441,26.15 -19.976,35.63 -1.332,1.51 -2.91,1.51 -4.731,0.93 -21.714,-7.17 -36.797,-30.68 -50.332,-47.9 -9.136,-11.59 -17.578,-23.77 -25.777,-36.02 -4.047,-5.34 -8.031,-10.77 -11.699,-16.49 -5.824,-9.02 -11.25,-18.38 -16.391,-27.85 l -1.836,-1.7 0.196,-0.33 0.761,0.56 c -9.082,-16.74 -17.515,-33.87 -26.402,-50.47 -7.563,-14.16 -14.082,-29.1 -19.785,-44.58 -0.957,-3.02 -1.977,-6.04 -2.856,-9.1 -8.238,-27.89 -16.48,-56.84 -18.238,-86.09 -0.527,-8.649 1.227,-18.5 1.855,-28 11.325,17.031 22.965,31.91 40.211,44.75 13.204,9.789 0.59,-2.86 -1.382,-5.36 -25.879,-32.511 -34.043,-82.449 -21.274,-121.898 8.731,-26.992 20,-52.992 30.781,-79.231 14.746,-35.859 28.125,-72.519 40,-109.57 4.551,-12.633 8.496,-25.562 11.836,-38.75 0.61,-2.129 1.313,-4.211 1.899,-6.351 14.39,-50.61 25.996,-102.411 30.39,-154.918 2.403,-29.102 2.989,-59.454 -1.957,-88.563 -1.089,-15.238 -3.062,-30.437 -6.207,-45.82 -5.785,-28.008 -17.972,-71.887 -38.754,-99.59 -6.968,3.019 -13.886,6.082 -20.894,8.883 -2.973,0.398 -5.918,0.758 -8.813,0.89 -1.398,0.047 -3.043,-0.254 -4.722,-0.543 -2.895,-0.5 -5.903,-0.988 -7.992,0.223 -7.184,4.117 -12.54,7.938 -20.504,10.738 -1.328,0.489 -2.621,0.969 -3.907,1.481 -4.648,1.191 -9.316,2.418 -14.004,3.629 -3.261,-0.27 -6.738,-0.629 -9.847,-0.231 -12.735,1.813 -24.024,8.641 -37.34,7.633 -22.441,-1.73 -36.801,-15.953 -46.074,-33.961 -6.117,-16.57 -7.973,-33.75 2.047,-51.281 6.078,-10.649 13.832,-17.539 23.5,-22.899 6.914,-3.082 13.843,-6.332 21.168,-8.293 50.351,-13.648 98.652,-27.6675 151.527,-19.418 42.441,6.629 67.715,26.168 83.727,65.45 22.089,54.261 43.714,104.66 78.164,152.66 46.625,64.961 112.675,136.609 110.918,218.441 6.835,-9.383 12.328,-19.461 14.472,-30.551 0.703,0.969 1.313,2.09 1.957,3.122 121.971,208.07 148.021,430.507 143.531,454.839"
         style="fill:#ee582c;fill-opacity:1;fill-rule:nonzero;stroke:none"
         id="perna-esquerda" />
      <path
         d="m 861.945,511.148 c -10.722,-26.449 -29.14,-49.66 -54.554,-62.269 -1.856,-0.867 -15.719,37.043 -21.578,54.543 -13.184,-35.371 -29.141,-69.66 -51.997,-99.91 -1.812,-2.383 -4.507,53.488 -14.918,78.136 -6.214,14.782 -14.164,28.692 -20.824,43.184 -0.465,-14.781 -10.347,-47.023 -11.187,-44.09 -5.727,19.188 -19.321,35.86 -33.535,50.09 0.972,-33.141 -3.809,-66.871 -17.739,-97.113 -1.25,-2.719 -18.804,32.82 -25.703,48.633 1.914,-13.012 3.457,-26.071 4.574,-39.25 2.403,-29.102 2.989,-59.454 -1.957,-88.563 -1.089,-15.238 -3.062,-30.437 -6.207,-45.82 -5.785,-28.008 -17.972,-71.887 -38.754,-99.59 -6.968,3.019 -13.886,6.082 -20.894,8.883 -2.973,0.398 -5.918,0.758 -8.813,0.89 -1.398,0.047 -3.043,-0.254 -4.722,-0.543 -2.895,-0.5 -5.903,-0.988 -7.992,0.223 -7.184,4.117 -12.54,7.938 -20.504,10.738 -1.328,0.489 -2.621,0.969 -3.907,1.481 -4.648,1.191 -9.316,2.418 -14.004,3.629 -3.261,-0.27 -6.738,-0.629 -9.847,-0.231 -12.735,1.813 -24.024,8.641 -37.34,7.633 -22.441,-1.73 -36.801,-15.953 -46.074,-33.961 -6.117,-16.57 -7.973,-33.75 2.047,-51.281 6.078,-10.649 13.832,-17.539 23.5,-22.899 6.914,-3.082 13.843,-6.332 21.168,-8.293 50.351,-13.648 98.652,-27.6675 151.527,-19.418 42.441,6.629 67.715,26.168 83.727,65.45 22.089,54.261 43.714,104.66 78.164,152.66 40.57,56.48 95.824,118.109 108.343,187.058"
         style="fill:#fffeef;fill-opacity:1;fill-rule:nonzero;stroke:none"
         id="path24" />
      <path
         d="m 585.793,189.219 c -1.289,1.992 -2.695,3.84 -4.16,5.621 -6.645,6.281 -12.934,13.57 -20.274,18.121 -9.808,6.07 -21.722,9.187 -33.105,9.258 -2.094,0.023 -4.043,-0.321 -5.902,-0.809 -21.5,27.52 -65.172,15.059 -85.215,-11.25 -6.52,-8.57 -12.926,-21.422 -15.543,-32.89 -1.332,-12.719 -0.039,-24.711 6.367,-34.969 4.117,-6.602 11.656,-14.071 17.969,-17.91 -2.914,3.039 -7.465,9.078 -9.692,12.371 -16.23,23.429 -9.195,47.949 7.715,69 25.492,26.039 50.059,29.539 74.731,14.269 -10.508,-4.851 -18.457,-16.75 -23.711,-26.691 -11.836,-22.34 -12.524,-41.938 -4.121,-62.93 4.878,-12.109 16.054,-20.719 28.496,-24.488 -4.496,2.93 -10.746,8.777 -13.969,12.469 -2.652,2.961 -4.859,6.168 -6.641,9.488 l -1.148,1.57 c -10.317,15.871 -5.41,36.91 0.996,53.571 12.672,32.992 40.918,37.769 65.918,22.671 9.195,-5.562 13.824,-12.511 21.715,-17.281 l -0.426,0.809"
         style="fill:#b8b8ac;fill-opacity:1;fill-rule:nonzero;stroke:none"
         id="path26" />
      <path
         d="m 810.48,401.371 c 23.864,34.539 44.422,71 51.465,109.777 -10.722,-26.449 -29.14,-49.66 -54.554,-62.269 -0.02,-0.008 -0.043,-0.02 -0.067,-0.02 -1.976,0 -14.179,33.063 -20.429,51.36 24.949,72.011 37.507,147.172 27.668,226.32 -0.063,0.481 -0.25,0.703 -0.555,0.703 -4.621,0 -36.074,-52.152 -51.832,-73.621 1.23,16 1.855,32.059 1.484,48.25 -1.211,56.371 -16.914,114.688 -36.289,167.199 -0.129,0.352 -0.277,0.52 -0.437,0.52 -3.254,0 -12.598,-68.129 -19.09,-97.629 -4.145,25.559 -9.36,48.078 -24.785,73.5 -21.094,34.82 -49.375,64.609 -70.996,99.031 -26,41.379 -41.973,85.328 -46.407,134.068 -2.543,27.8 -1.293,55.83 -0.668,83.83 1.637,2.52 3.321,4.99 5.043,7.42 0.078,-35.44 5.446,-70.59 19.391,-104.59 v 0 c 0.062,-0.35 0.18,-0.52 0.344,-0.52 0.187,0 0.429,0.21 0.73,0.61 l 27.543,2.29 c 7.75,-50.86 28.777,-98.51 68.262,-123.799 0.043,-0.031 0.086,-0.039 0.125,-0.039 2.129,0 -2.863,39.629 -7.039,57.098 3.961,-5.231 8.593,-10.438 13.941,-15.77 20.551,-20.539 62.149,-39.961 88.789,-48.008 35.473,-10.723 61.309,-15.172 100.18,-16.711 37.574,-1.539 74.769,-4.121 111.16,-4.121 9.223,0 18.383,0.172 27.503,0.559 -11.33,-82.918 -48.921,-246.321 -140.011,-401.707 -0.644,-1.032 -1.254,-2.153 -1.957,-3.122 -2.144,11.09 -7.637,21.168 -14.472,30.551 v 0 0 c 0.023,-1.043 0.035,-2.082 0.035,-3.121 0.031,-49.48 -24.485,-95.23 -54.075,-138.039"
         style="fill:#c94c25;fill-opacity:1;fill-rule:nonzero;stroke:none"
         id="path28" />
      <path
         d="m 559.406,103.52 c -14.078,0 -27.922,1.32 -41.656,3.511 -4.281,3.129 -9.516,8.09 -12.371,11.36 -2.652,2.961 -4.859,6.168 -6.641,9.488 l -1.148,1.57 c -10.317,15.871 -5.41,36.91 0.996,53.571 0.625,1.628 1.285,3.179 1.984,4.671 -0.054,-1.961 -0.027,-3.941 0.082,-5.949 1.543,-27.113 20.469,-45.332 45.571,-51.851 4.144,-1.082 8.398,-1.621 12.543,-1.621 18.57,0 34.964,10.902 29.933,33.402 -3.562,15.898 -12.695,30.59 -23.66,43.687 8.844,-5.5 13.445,-12.269 21.18,-16.949 l -0.426,0.809 c -1.289,1.992 -2.695,3.84 -4.16,5.621 -4.176,3.941 -8.207,8.289 -12.453,12.101 14.058,-6.402 29.113,-18.89 36.707,-25.691 1.551,-1.398 3.453,-2.102 5.32,-2.102 2.441,0 4.824,1.204 6.281,3.602 61.274,100.27 130.446,205.031 169.407,317.469 6.25,-18.297 18.453,-51.36 20.429,-51.36 0.024,0 0.047,0.012 0.067,0.02 25.414,12.609 43.832,35.82 54.554,62.269 -7.043,-38.777 -27.601,-75.238 -51.465,-109.777 v 0 C 791.914,374.52 771.352,348.82 753.602,324.09 v 0 c -34.45,-48 -56.075,-98.399 -78.164,-152.66 -16.012,-39.282 -41.286,-58.821 -83.727,-65.45 -10.949,-1.71 -21.691,-2.46 -32.305,-2.46"
         style="fill:#d7d8bf;fill-opacity:1;fill-rule:nonzero;stroke:none"
         id="path30" />
      <path
         d="m 395.453,156.711 c -0.004,0 -0.004,0 -0.004,0.008 0,-0.008 0,-0.008 0.004,-0.008"
         style="fill:#d8dad1;fill-opacity:1;fill-rule:nonzero;stroke:none"
         id="path32" />
      <path
         d="m 514.906,107.488 c -24.941,4.192 -49.578,11.102 -74.722,17.91 -7.325,1.961 -14.254,5.211 -21.168,8.293 -9.668,5.36 -17.422,12.25 -23.5,22.899 v 0 c -0.02,0.039 -0.043,0.082 -0.063,0.121 -0.004,0 -0.004,0 -0.004,0.008 -5.57,9.793 -7.351,19.461 -6.828,29 2.231,-7.25 5.766,-14.449 10.805,-21.469 1.754,-2.449 4.07,-3.52 6.293,-3.52 4.183,0 8.043,3.782 7.242,9.211 -4.066,27.11 18.457,48.188 44.488,59.899 -1.859,-1.77 -3.652,-3.59 -5.355,-5.442 -5.719,-4.007 -10.836,-8.828 -14.957,-14.238 -6.52,-8.57 -12.926,-21.422 -15.543,-32.89 -1.332,-12.719 -0.039,-24.711 6.367,-34.969 4.117,-6.602 11.656,-14.071 17.969,-17.91 v 0 0 c -2.914,3.039 -7.465,9.078 -9.692,12.371 -12.785,18.457 -11.133,37.59 -1.59,55.179 -1.957,-12.98 2.196,-26.691 15.868,-40.293 1.476,-1.457 3.289,-2.128 5.082,-2.128 3.14,0 6.215,2.05 7.285,5.402 6.543,20.699 22.398,41.148 42.066,54.219 -0.113,-0.282 -0.226,-0.559 -0.336,-0.852 -3.851,-4.75 -7.07,-10.078 -9.64,-14.949 -11.836,-22.34 -12.524,-41.938 -4.121,-62.93 4.293,-10.648 13.449,-18.59 24.054,-22.922"
         style="fill:#d7d8bf;fill-opacity:1;fill-rule:nonzero;stroke:none"
         id="path34" />
      <path
         d="m 517.75,107.031 c -0.949,0.149 -1.895,0.301 -2.844,0.457 v 0 c -10.605,4.332 -19.761,12.274 -24.054,22.922 -8.403,20.992 -7.715,40.59 4.121,62.93 2.57,4.871 5.789,10.199 9.64,14.949 -2.476,-6.34 -3.84,-13.277 -4.043,-20.598 -0.699,-1.492 -1.359,-3.043 -1.984,-4.671 -6.406,-16.661 -11.313,-37.7 -0.996,-53.571 l 1.148,-1.57 c 1.782,-3.32 3.989,-6.527 6.641,-9.488 2.855,-3.27 8.09,-8.231 12.371,-11.36 v 0 m -71.82,17.36 c -6.313,3.839 -13.852,11.308 -17.969,17.91 -6.406,10.258 -7.699,22.25 -6.367,34.969 2.617,11.468 9.023,24.32 15.543,32.89 4.121,5.41 9.238,10.231 14.957,14.238 -9.071,-9.859 -15.692,-20.867 -17.446,-32.457 -9.543,-17.589 -11.195,-36.722 1.59,-55.179 2.227,-3.293 6.778,-9.332 9.692,-12.371 m 140.289,64.019 c -7.735,4.68 -12.336,11.449 -21.18,16.949 -1.289,1.539 -2.601,3.063 -3.934,4.551 2.61,-0.691 5.325,-1.711 8.075,-2.969 4.246,-3.812 8.277,-8.16 12.453,-12.101 1.465,-1.781 2.871,-3.629 4.16,-5.621 l 0.426,-0.809"
         style="fill:#999b8c;fill-opacity:1;fill-rule:nonzero;stroke:none"
         id="path36" />
      <path
         d="m 2399.6,835.012 c -2.42,6.429 -5.04,12.699 -7.34,19.039 -9.71,-9.082 -16.63,-20.121 -28.09,-27.801 -21.37,-14.281 -56.33,-7.629 -79.04,-0.27 -37.03,11.989 -66.02,38.36 -102.72,49.211 -17.26,2.438 -35.94,1.278 -51.64,-5.781 -4.51,-2.058 -9.24,-4.648 -13.87,-7.711 -8.84,-6.629 -16.56,-14.308 -22.03,-21.789 -9.04,-12.308 -14.96,-23.09 -19.22,-34.109 l -0.86,1.859 c -0.89,-4.262 -1.24,-8.539 -0.91,-12.801 0.25,-2.91 -3.4,-5.14 -5.43,-2.558 -14.94,19.078 -11.55,40.281 -5.39,61.289 -1.64,-1.649 -3.4,-3.16 -4.98,-4.84 -8.93,-11.801 -15.9,-22.871 -22.15,-37.871 -0.69,-1.668 -1.43,-3.438 -2.21,-5.289 -0.76,-5.68 -1.43,-11.52 -2.5,-17.141 -0.33,-7.5 -0.6,-16.73 -5.02,-22.84 -5.51,-7.629 -14.3,-9.898 -23.05,-8.777 l -0.35,-0.293 -0.66,0.391 c -2.13,0.332 -4.22,0.84 -6.29,1.5 -14.53,2.39 -29.1,13.57 -35.43,26.41 -18.73,38.09 -12.05,87.512 -7.97,128.101 2.56,25.399 6.27,52.09 1.23,77.43 -1.29,6.629 -3.01,13.169 -4.92,19.539 -37.68,68.66 -88.75,129.28 -156.41,171.25 -30.78,19.08 -63.82,34.13 -97.18,48.52 -8.13,3.2 -16.25,6.45 -24.38,9.74 -37.99,15.59 -75.64,31.99 -113.83,47.01 -9.51,3.72 -18.67,7.72 -27.61,11.97 -6.72,7.66 -22.76,13.95 -28.91,17.9 -10,6.44 -35.61,31.26 -48.65,17.95 -14.34,-14.65 -12.93,-55.34 -15.24,-74.34 -4.94,-40.91 -2.73,-82.37 -1.48,-123.5 2.52,-83.7 27.97,-166.801 52.26,-246.39 12.07,-39.579 30.22,-77.68 43.71,-116.969 12.58,-36.742 20.69,-74.59 30.75,-111.992 8.18,-38.411 23.22,-74.317 41.74,-108.938 34.74,-64.961 96.23,-116.281 164.78,-142.449 -6.39,18.687 -13.34,35.91 -10.25,56.687 0.43,3.172 16.58,-56.55 37.48,-79.988 3.14,-2.039 6.44,-3.832 9.84,-5.281 3.73,-0.801 7.7,-1.41 10.1,-2.289 1.39,-0.52 2.79,-0.821 4.18,-1.27 15.55,-1.66 31.6,0.34 47.07,1.457 35.94,2.481 69.45,9.551 103.85,20.063 21.09,6.449 43.47,11.769 60.91,-5.832 4.61,-4.68 8.19,-9.84 11.08,-15.387 8.44,8.059 9.94,20.66 8.42,33.406 2.4,-1.398 4.94,-2.59 7.67,-3.5 26.56,-8.629 54.47,-1.758 80.9,4.813 78.75,24.801 147.4,93.269 160.29,173.828 5.04,31.531 4.93,63.781 10.06,95.203 3.26,20.09 11.37,39.527 30.28,49.648 11.73,6.309 26.81,7.211 37.48,15.25 10.25,7.731 17.44,18.442 21.38,30.7 5.8,18.179 7.44,39.64 0.55,57.832"
         style="fill:#b3461f;fill-opacity:1;fill-rule:nonzero;stroke:none"
         id="path38" />
      <path
         d="m 2399.6,835.012 c -2.42,6.429 -5.04,12.699 -7.34,19.039 -9.71,-9.082 -16.63,-20.121 -28.09,-27.801 -21.37,-14.281 -56.33,-7.629 -79.04,-0.27 -37.03,11.989 -66.02,38.36 -102.72,49.211 -17.26,2.438 -35.94,1.278 -51.64,-5.781 -4.51,-2.058 -9.24,-4.648 -13.87,-7.711 -8.84,-6.629 -16.56,-14.308 -22.03,-21.789 -9.04,-12.308 -14.96,-23.09 -19.22,-34.109 l -0.86,1.859 c -0.89,-4.262 -1.24,-8.539 -0.91,-12.801 0.25,-2.91 -3.4,-5.14 -5.43,-2.558 -14.94,19.078 -11.55,40.281 -5.39,61.289 -1.64,-1.649 -3.4,-3.16 -4.98,-4.84 -8.93,-11.801 -15.9,-22.871 -22.15,-37.871 -0.69,-1.668 -1.43,-3.438 -2.21,-5.289 -0.76,-5.68 -1.43,-11.52 -2.5,-17.141 -0.33,-7.5 -0.6,-16.73 -5.02,-22.84 -5.51,-7.629 -14.3,-9.898 -23.05,-8.777 l -0.35,-0.293 -0.66,0.391 c -2.13,0.332 -4.22,0.84 -6.29,1.5 -14.53,2.39 -29.1,13.57 -35.43,26.41 l -0.35,0.808 c 1.07,-5.316 3.28,-10.359 4.59,-15.668 13.26,-54.21 58.74,-50.73 78.78,-47.25 6.14,1.071 9.89,2.129 9.6,1.54 -11.41,-23 -36.02,-38.731 -61.49,-43.43 16.39,-14.5 30.75,-30.942 39.85,-50.84 0.66,-1.371 -55.82,-21.98 -83.44,-18.898 -8.89,1 -16.99,3.367 -24.51,6.699 12.75,-16.84 24.1,-34.781 33.98,-53.93 1.17,-2.301 -53.14,-1.98 -74.8,6.461 7.5,-15.871 12.91,-32.531 14.55,-50.582 0.17,-2.379 -30.39,18.242 -44.4,27.23 11.35,-23.91 23.93,-47.039 38.42,-69.25 1.06,-1.589 -51.44,-20.82 -75.62,-8.808 -15.1,7.43 -24.73,21.207 -31.02,36.398 2.48,-26.16 15.86,-82.558 13.77,-79.558 -13.38,19.117 -27.25,38.047 -36.76,59.238 1.47,-19.68 6.27,-38.781 11.21,-57.871 6.27,-15.137 14.11,-31.059 22.76,-40.758 3.14,-2.039 6.44,-3.832 9.84,-5.281 3.73,-0.801 7.7,-1.41 10.1,-2.289 1.39,-0.52 2.79,-0.821 4.18,-1.27 15.55,-1.66 31.6,0.34 47.07,1.457 35.94,2.481 69.45,9.551 103.85,20.063 21.09,6.449 43.47,11.769 60.91,-5.832 4.61,-4.68 8.19,-9.84 11.08,-15.387 8.44,8.059 9.94,20.66 8.42,33.406 2.4,-1.398 4.94,-2.59 7.67,-3.5 26.56,-8.629 54.47,-1.758 80.9,4.813 78.75,24.801 147.4,93.269 160.29,173.828 5.04,31.531 4.93,63.781 10.06,95.203 3.26,20.09 11.37,39.527 30.28,49.648 11.73,6.309 26.81,7.211 37.48,15.25 10.25,7.731 17.44,18.442 21.38,30.7 5.8,18.179 7.44,39.64 0.55,57.832"
         style="fill:#fffeef;fill-opacity:1;fill-rule:nonzero;stroke:none"
         id="path40" />
      <path
         d="m 2399.6,835.012 c -1.68,4.468 -3.46,8.859 -5.16,13.258 0,0 0,0.011 0,0.019 1.72,-4.41 3.48,-8.789 5.16,-13.277 m -841.97,451.148 c -0.22,0.09 -0.44,0.18 -0.67,0.27 0.23,-0.09 0.45,-0.18 0.67,-0.27"
         style="fill:#d8dad1;fill-opacity:1;fill-rule:nonzero;stroke:none"
         id="path42" />
      <path
         d="m 1795.54,386.371 c -0.03,0.031 -0.05,0.051 -0.08,0.078 0.03,-0.027 0.05,-0.047 0.08,-0.078 m -11.13,16.25 c 0,0.008 0,0.008 -0.01,0.02 0.01,-0.012 0.01,-0.012 0.01,-0.02 m -0.08,0.149 c -2.75,4.929 -5.36,10.242 -7.78,15.621 2.43,-5.379 5.03,-10.692 7.78,-15.621 m -16.02,6.902 c -68.55,26.168 -130.04,77.488 -164.78,142.449 -6.93,12.938 -13.36,26.07 -19.14,39.43 -0.3,1.398 -0.6,2.789 -0.89,4.179 -4.29,20.481 -7.3,40.762 -5.13,62.739 -0.03,-0.039 -0.06,-0.071 -0.09,-0.11 0.5,5.082 1.27,10.243 2.37,15.52 10.57,50.269 24.2,98.98 28.23,150.48 3.92,50.172 7.13,100.223 12.67,150.282 0.33,3.05 0.63,6.019 0.96,9.031 v 0 0 c -0.82,41.118 -5.35,82.288 -14.08,123.268 -12.82,60.03 -31.9,118.92 -57.03,174.91 -1.25,2.76 -2.47,5.54 -3.68,8.33 3.05,-1.28 6.13,-2.53 9.24,-3.75 v 0 c 0.23,-0.09 0.45,-0.18 0.67,-0.27 5.56,-2.19 11.12,-4.48 16.7,-6.71 26.13,-27.57 48.75,-58.9 69.39,-89.92 19.32,-28.96 38.97,-59.26 52.27,-91.51 16.95,-40.96 20.41,-86.42 21.05,-130.231 0.59,-39.519 -1.52,-78.98 -0.23,-118.488 1.36,-40.789 9.1,-81.102 19.74,-120.442 9.69,-35.668 23.44,-69.828 37.37,-103.98 10.62,-26.16 44.27,-86.359 46.99,-91.629 0.29,-0.559 17.39,-2.52 40.44,-3.691 9.06,-17.758 18.91,-35.059 29.85,-51.829 0.81,-1.21 -29.68,-12.742 -54.89,-12.742 -7.77,0 -15.04,1.102 -20.73,3.934 -15.1,7.43 -24.73,21.207 -31.02,36.398 2.42,-25.48 15.18,-79.672 13.9,-79.679 -0.03,0 -0.08,0.039 -0.13,0.121 -13.38,19.117 -27.25,38.047 -36.76,59.238 1.47,-19.668 6.27,-38.77 11.21,-57.852 -8.44,20.434 -13.97,39.34 -14.66,39.34 -0.03,0 -0.05,-0.039 -0.06,-0.129 -0.52,-3.488 -0.76,-6.879 -0.76,-10.187 -0.01,-16.41 5.7,-30.953 11.01,-46.5 m 128.63,109.887 c -1.31,0 -8.05,4.062 -16.22,9.273 4.95,-0.121 10,-0.191 15.1,-0.191 0.08,0 0.15,0 0.23,0 0.48,-2.922 0.85,-5.891 1.13,-8.891 0.01,-0.129 -0.07,-0.191 -0.24,-0.191"
         style="fill:#953b1d;fill-opacity:1;fill-rule:nonzero;stroke:none"
         id="path44" />
      <path
         d="m 1832.46,376.891 c -4.29,0 -8.57,0.179 -12.8,0.64 -1.39,0.449 -2.79,0.75 -4.18,1.27 -2.4,0.879 -6.37,1.488 -10.1,2.289 -3.4,1.449 -6.7,3.242 -9.84,5.281 v 0 c -0.03,0.031 -0.05,0.051 -0.08,0.078 v 0 c -3.87,4.36 -7.57,9.961 -11.05,16.172 v 0 c 0,0.008 0,0.008 -0.01,0.02 v 0 c -0.02,0.039 -0.04,0.078 -0.07,0.129 v 0 c -2.75,4.929 -5.35,10.242 -7.78,15.621 v 0 c -1.31,2.918 -2.57,5.859 -3.77,8.757 v 0 c -4.94,19.082 -9.74,38.184 -11.21,57.852 9.51,-21.191 23.38,-40.121 36.76,-59.238 0.05,-0.082 0.1,-0.121 0.13,-0.121 1.28,0.007 -11.48,54.199 -13.9,79.679 6.29,-15.191 15.92,-28.968 31.02,-36.398 5.69,-2.832 12.96,-3.934 20.73,-3.934 25.21,0 55.7,11.532 54.89,12.742 -10.94,16.77 -20.79,34.071 -29.85,51.829 6.11,-0.309 12.63,-0.571 19.37,-0.727 8.17,-5.211 14.91,-9.273 16.22,-9.273 0.17,0 0.25,0.062 0.24,0.191 -0.28,3 -0.65,5.969 -1.13,8.891 38.19,0.019 78.27,3.828 86.46,18.129 6.5,-15.301 8.5,-34.168 16.62,-48.711 0.04,-0.059 0.09,-0.09 0.15,-0.09 2.74,0 29.88,57.051 36.12,79.48 8.2,-16.019 19.16,-29.679 37.81,-34.058 4.15,-0.993 8.46,-1.422 12.88,-1.422 20.96,0 44.21,9.82 62.06,17.23 16.94,7.039 32.58,18.031 41.18,34.711 11.44,22.262 18.3,97.301 19.33,117.219 1.49,28.652 28.52,34.98 42.09,40.223 27.13,10.386 71.51,9.039 95.08,26.48 24.64,18.27 39.47,43.059 48.61,70.438 1.7,-4.399 3.48,-8.79 5.16,-13.258 v 0 c 3.15,-8.313 4.52,-17.313 4.52,-26.364 0.01,-10.757 -1.92,-21.589 -5.07,-31.468 -3.94,-12.258 -11.13,-22.969 -21.38,-30.7 -10.67,-8.039 -25.75,-8.941 -37.48,-15.25 -18.91,-10.121 -27.02,-29.558 -30.28,-49.648 -5.13,-31.422 -5.02,-63.672 -10.06,-95.203 -12.89,-80.559 -81.54,-149.027 -160.29,-173.828 -17.55,-4.36 -35.75,-8.86 -53.78,-8.86 -9.12,0 -18.2,1.149 -27.12,4.047 -2.73,0.91 -5.27,2.102 -7.67,3.5 v 0 0 c 0.33,-2.789 0.52,-5.566 0.52,-8.297 0.01,-9.742 -2.35,-18.812 -8.94,-25.109 -2.89,5.547 -6.47,10.707 -11.08,15.387 -8.81,8.89 -18.89,11.933 -29.42,11.933 -10.31,0 -21.06,-2.91 -31.49,-6.101 -34.4,-10.512 -67.91,-17.582 -103.85,-20.063 -11.25,-0.808 -22.82,-2.097 -34.27,-2.097"
         style="fill:#d7d8bf;fill-opacity:1;fill-rule:nonzero;stroke:none"
         id="path46" />
      <path
         d="m 1710.71,235.051 c -10.23,21.078 -38.12,28.539 -58.84,22.379 -2.39,-0.719 -5.26,-1.871 -8.21,-3.489 -8.36,6.707 -18.92,11.399 -31.95,13.321 -12.58,1.898 -30.68,-3.903 -45.14,-13.711 -27.58,62.121 -9.39,142.039 3.22,206.179 6.88,35.149 10.65,57.668 0.55,92.372 -3.59,12.328 -10.94,23.418 -19.24,34.128 l 0.26,-0.199 c 7.05,-5.761 14.88,-10.722 22.2,-16.222 5.1,-3.879 9.5,-6.399 15.73,-6.59 -1.78,9.363 -3.46,18.679 -4.83,28.011 -5.8,26.739 -10.04,52.821 -3.81,82.649 10.57,50.269 24.2,98.98 28.23,150.48 3.92,50.172 7.13,100.223 12.67,150.282 0.33,3.05 0.63,6.019 0.96,9.031 -0.82,41.118 -5.35,82.288 -14.08,123.268 -12.82,60.03 -31.9,118.92 -57.03,174.91 -11.08,24.65 -20.59,50.19 -33.87,73.83 -8.85,15.77 -20.55,29.49 -31.39,43.75 l -0.35,0.96 c -7.87,9.97 -16.07,19.94 -25.08,28.9 -27.28,-15.03 -54.41,-30.48 -80.58,-47.47 -63.52,-41.22 -121.57,-88.89 -174.48,-143.05 -51.5,-52.64 -100.31,-108.97 -138.73,-171.99 -18.24,-29.91 -35.87,-60.94 -48.53,-93.69 -5.51,-14.231 -8.95,-29.32 -12.62,-44.231 14.81,-11.269 29.1,-23.347 42.64,-33.757 25.55,-19.614 47.95,-44.563 69.69,-68.243 49.82,-54.14 91.01,-112.558 127.59,-176.148 38.73,-67.281 72.05,-137.422 106.14,-207.09 17.36,-35.461 34.37,-71.141 49.12,-107.781 9.43,-23.52 15.86,-48.039 22.24,-72.508 2.11,-16.363 3.54,-32.941 4.83,-49.82 2.87,-37.961 -3.24,-84.141 39.14,-89.672 42.22,-5.508 98.94,-2.84 141.19,3.172 25.49,3.597 80.39,2.73 98.63,25.468 l 0.8,1.532 c 3.83,3.418 6.9,7.988 9.01,14.429 7.32,22.411 4.26,45.36 -6.08,66.61"
         style="fill:#e2552a;fill-opacity:1;fill-rule:nonzero;stroke:none"
         id="path48" />
      <path
         d="m 1710.71,235.051 c -10.23,21.078 -38.12,28.539 -58.84,22.379 -2.39,-0.719 -5.26,-1.871 -8.21,-3.489 -8.36,6.707 -18.92,11.399 -31.95,13.321 -12.58,1.898 -30.68,-3.903 -45.14,-13.711 -27.58,62.121 -9.39,142.039 3.22,206.179 6.88,35.149 10.65,57.668 0.55,92.372 -3.59,12.328 -10.94,23.418 -19.24,34.128 l 0.26,-0.199 c 7.05,-5.761 14.88,-10.722 22.2,-16.222 5.1,-3.879 9.5,-6.399 15.73,-6.59 -1.78,9.363 -3.46,18.679 -4.83,28.011 -4.78,22.02 -8.42,43.649 -6.09,67.239 -22.4,-26.25 -40.61,-99.36 -42.05,-96.539 -11.41,22.511 -23.61,20.16 -38.13,40.699 4.42,-39.277 -8.71,-99.988 -10.04,-96.598 -19.82,50.278 -59.55,87.981 -89.64,131.989 -9.4,-27.739 -22.97,-89.45 -25.2,-87.579 -27.42,23.079 -48.44,54.969 -62.66,88.77 1.8,-27.039 6.47,-53.609 17.74,-79.039 1.17,-2.723 -39.92,22.199 -54.32,39.129 27.23,-51.211 52.25,-103.59 77.76,-155.68 17.36,-35.461 34.37,-71.141 49.12,-107.781 9.43,-23.52 15.86,-48.039 22.24,-72.508 2.11,-16.363 3.54,-32.941 4.83,-49.82 2.87,-37.961 -3.24,-84.141 39.14,-89.672 42.22,-5.508 98.94,-2.84 141.19,3.172 25.49,3.597 80.39,2.73 98.63,25.468 l 0.8,1.532 c 3.83,3.418 6.9,7.988 9.01,14.429 7.32,22.411 4.26,45.36 -6.08,66.61"
         style="fill:#fffeef;fill-opacity:1;fill-rule:nonzero;stroke:none"
         id="path50" />
      <path
         d="m 1614.38,217.07 c -21.95,59.27 -73.04,37.692 -110.6,16.09 l 0.1,-0.531 c 27.89,12.312 58.24,26.312 86.68,4.519 36.29,-27.769 23.2,-85.117 -8.01,-104.468 -2.31,-2.399 -4.77,-4.61 -7.36,-6.629 30,10.789 52.44,55.168 39.19,91.019"
         style="fill:#b8b8ac;fill-opacity:1;fill-rule:nonzero;stroke:none"
         id="path52" />
      <path
         d="m 1684.58,195.75 c -3.11,24.559 -18.2,44.449 -41.29,57.41 l -0.35,-0.461 c 11.37,-11.48 24.22,-24.289 28.69,-42.367 13.89,-56.062 -22.64,-78.832 -21.25,-77.844 18.32,13.223 37.21,39.211 34.2,63.262"
         style="fill:#b8b8ac;fill-opacity:1;fill-rule:nonzero;stroke:none"
         id="path54" />
      <path
         d="m 1530.97,121 c 1.58,1.191 3.22,2.289 4.78,3.602 35.55,29.839 33.28,108.867 -15.34,108.867 -3.26,0 -6.73,-0.348 -10.4,-1.098 -0.21,0.891 -0.42,1.801 -0.61,2.688 15.62,6.863 31.93,13.48 48.15,13.48 11.12,0 22.2,-3.109 33.01,-11.391 36.29,-27.769 23.2,-85.117 -8.01,-104.468 -2.31,-2.399 -4.77,-4.61 -7.36,-6.629 30,10.789 52.44,55.168 39.19,91.019 -10.15,27.41 -26.53,37.532 -44.93,38.352 12.03,7.488 26.04,12.199 37.22,12.199 1.75,0 3.44,-0.121 5.04,-0.359 13.03,-1.922 23.59,-6.614 31.95,-13.321 2.95,1.618 5.82,2.77 8.21,3.489 4.68,1.402 9.73,2.09 14.87,2.09 17.56,0 36.05,-8.149 43.97,-24.469 6.48,-13.321 10.1,-27.313 10.1,-41.422 0,-8.391 -1.29,-16.828 -4.02,-25.188 -2.11,-6.441 -5.18,-11.011 -9.01,-14.429 l -0.8,-1.532 c -18.24,-22.738 -73.14,-21.871 -98.63,-25.468 v 0 c -23.07,-3.274 -50.43,-5.5 -77.38,-6.012 m 121.67,13.18 c -0.75,-0.578 -1.51,-1.149 -2.26,-1.692 -0.03,-0.019 -0.04,-0.027 -0.04,-0.027 0.03,0 0.9,0.559 2.3,1.719 17.57,13.66 34.82,38.5 31.94,61.57 -3.11,24.559 -18.2,44.449 -41.29,57.41 l -0.35,-0.461 c 11.37,-11.48 24.22,-24.289 28.69,-42.367 11.47,-46.301 -11.45,-69.891 -18.99,-76.152"
         style="fill:#d7d8bf;fill-opacity:1;fill-rule:nonzero;stroke:none"
         id="path56" />
      <path
         d="m 1252.35,638.641 c -2.15,3.839 -4.18,7.738 -6.37,11.578 2.07,-3.598 4.12,-7.207 6.16,-10.821 0.07,-0.25 0.14,-0.5 0.21,-0.757"
         style="fill:#d8dad1;fill-opacity:1;fill-rule:nonzero;stroke:none"
         id="path58" />
      <path
         d="m 1485.88,511.551 c -8.25,19.168 -19.34,36.539 -31.53,53.238 -1.44,4.992 -2.85,9.992 -4.22,15 -15.2,55.57 -14.51,113.082 -12.78,170.199 3.4,112.782 25.9,343.422 22.82,344.222 -0.69,0.17 -1.39,0.26 -2.08,0.26 -0.94,0 -1.87,-0.16 -2.75,-0.49 -1.44,-0.54 -25.98,-53.06 -35.94,-78.61 1.33,33.08 -15.11,103.81 -17.98,103.81 -0.13,0 -0.23,-0.14 -0.3,-0.42 -15.7,-62.68 -59.12,-111.11 -101.68,-157.639 -37.93,-41.5 -74.59,-84.82 -126.11,-109.82 -3.73,-1.809 -4.43,-6.781 -2.66,-10.121 34.2,-64.348 61.62,-131.93 81.47,-201.782 -2.04,3.614 -4.09,7.223 -6.16,10.821 -0.1,0.16 -0.19,0.332 -0.29,0.492 v 0 c -36.58,63.59 -77.77,122.008 -127.59,176.148 -21.74,23.68 -44.14,48.629 -69.69,68.243 -8.79,6.757 -17.9,14.23 -27.27,21.718 33.88,1.461 66.95,6.039 98.91,16.77 29.69,9.949 55.66,25.301 81.52,42.621 24.2,16.238 68.77,62.809 66.56,63.089 -18.18,2.05 -35.09,3.99 -37.87,4.13 6.94,6.43 13.44,13.48 19.96,20.3 21.08,22.05 40.22,48.18 57.58,73.25 21.92,31.6 37.24,66.4 47.35,102.83 6.07,11.91 12.07,23.48 18.06,34.41 23.27,42.37 62.6,116.02 115.11,122.36 10.21,-13.25 20.95,-26.18 29.21,-40.9 13.28,-23.64 22.79,-49.18 33.87,-73.83 25.13,-55.99 44.21,-114.88 57.03,-174.91 8.73,-40.98 13.26,-82.15 14.08,-123.268 -0.33,-3.012 -0.63,-5.981 -0.96,-9.031 -5.54,-50.059 -8.75,-100.11 -12.67,-150.282 -4.03,-51.5 -17.66,-100.211 -28.23,-150.48 -1.1,-5.277 -1.87,-10.438 -2.37,-15.52 -21.94,-25.828 -39.83,-96.507 -41.86,-96.507 -0.04,0 -0.07,0.027 -0.1,0.078 -11.41,22.511 -23.61,20.16 -38.13,40.699 2.85,-25.309 -1.59,-59.52 -5.46,-79.738 -3.46,-0.481 -6.74,-3.082 -6.78,-7.192 -0.02,-1.39 -0.04,-2.769 -0.07,-4.148 m 98.58,79.679 c -0.32,1.5 -0.64,3 -0.96,4.5 0.32,-1.5 0.64,-3 0.96,-4.5"
         style="fill:#be4924;fill-opacity:1;fill-rule:nonzero;stroke:none"
         id="path60" />
      <path
         d="m 1509.15,236.191 c -20.24,92.77 9.9,188.02 -8.67,281.469 -0.74,3.672 -3.6,5.309 -6.59,5.309 -0.39,0 -0.78,-0.028 -1.16,-0.078 3.87,20.218 8.31,54.429 5.46,79.738 14.52,-20.539 26.72,-18.188 38.13,-40.699 0.03,-0.051 0.06,-0.078 0.1,-0.078 2.03,0 19.92,70.679 41.86,96.507 v 0 c -2.15,-21.961 0.93,-42.179 5.22,-62.629 0.32,-1.5 0.64,-3 0.96,-4.5 v 0 c 1.37,-9.332 3.05,-18.648 4.83,-28.011 -6.23,0.191 -10.63,2.711 -15.73,6.59 -7.32,5.5 -15.15,10.461 -22.2,16.222 l -0.26,0.199 v 0 c 8.3,-10.71 15.65,-21.8 19.24,-34.128 4.44,-15.25 6.2,-28.153 6.19,-40.801 0,-16.129 -2.88,-31.86 -6.74,-51.571 -7.77,-39.531 -17.66,-85.039 -17.65,-128.691 0,-26.457 3.65,-52.238 13.6,-75.578 -18.54,-0.379 -38.78,-9.422 -56.59,-19.27 m -27.54,230.079 c -7.31,33.281 -17.82,65.699 -27.26,98.519 12.19,-16.699 23.28,-34.07 31.53,-53.238 -0.34,-15.43 -1.6,-30.449 -4.27,-45.281"
         style="fill:#d7d8bf;fill-opacity:1;fill-rule:nonzero;stroke:none"
         id="path62" />
      <path
         d="m 1575.19,126.051 c 2.59,2.019 5.05,4.23 7.36,6.629 31.21,19.351 44.3,76.699 8.01,104.468 -10.81,8.282 -21.89,11.391 -33.01,11.391 -16.22,0 -32.53,-6.617 -48.15,-13.48 -0.09,0.382 -0.17,0.75 -0.25,1.132 17.81,9.848 38.05,18.891 56.59,19.27 0.27,-0.641 0.55,-1.281 0.83,-1.91 0.95,0.64 1.91,1.258 2.88,1.871 18.4,-0.82 34.78,-10.942 44.93,-38.352 13.25,-35.851 -9.19,-80.23 -39.19,-91.019"
         style="fill:#999b8c;fill-opacity:1;fill-rule:nonzero;stroke:none"
         id="path64" />
      <path
         d="m 1650.34,132.461 c 0,0 0.01,0.008 0.04,0.027 0.75,0.543 1.51,1.114 2.26,1.692 -1.4,-1.16 -2.27,-1.719 -2.3,-1.719 m 2.3,1.719 c 7.54,6.261 30.46,29.851 18.99,76.152 -4.47,18.078 -17.32,30.887 -28.69,42.367 l 0.35,0.461 c 23.09,-12.961 38.18,-32.851 41.29,-57.41 2.88,-23.07 -14.37,-47.91 -31.94,-61.57"
         style="fill:#999b8c;fill-opacity:1;fill-rule:nonzero;stroke:none"
         id="path66" />
      <path
         d="m 670.852,2247.05 c 0,0 -112.856,17.86 -213.418,-52.37 C 356.848,2124.47 161.492,1901.41 245.477,1686.4 l 434.496,301.58 -9.121,259.07"
         style="fill:#963b1d;fill-opacity:1;fill-rule:nonzero;stroke:none"
         id="path68" />
      <path
         d="m 2177.9,2748.37 c -0.23,-0.69 -0.25,-1.55 0.16,-2.46 11.44,-26.01 41.66,-20.41 64.88,-19.69 9.14,0.29 19.37,0.67 28.1,-2.53 9.4,-3.41 24.28,-14.13 21.59,-26.33 -3.81,-17.33 -35.9,-16.45 -49.4,-17.82 -28.34,-3 -56.52,-13.81 -85.31,-10.33 -21.91,2.54 -45.04,7.84 -67.09,3.38 -34.2,-6.96 -73.98,-16.93 -105.8,-35.57 -9.16,-3.12 -18.36,-6.28 -27.56,-9.62 -32.95,-12.1 -79.9,-18.64 -84.61,27.51 -1.13,11.27 13.01,31.08 19.67,38.65 10.29,11.82 21.83,20.58 34.67,27.27 l -1.55,-0.41 -0.04,0.72 c 2.27,0.72 4.4,1.48 6.59,2.23 4.16,2 8.45,3.74 12.97,5.38 15.23,7.09 29.27,16.69 41.97,27.92 19.75,17.45 18.38,49.85 22.73,73.72 4.81,26.48 17.31,49.27 34.32,69.6 21.5,25.68 52.93,45.82 86.39,50.58 6.34,0.91 23.28,-1.03 21.64,-11.96 -0.32,-2.27 -1.16,-4.52 -2.29,-6.61 23.65,8.97 47.72,10.92 65.2,-2.13 1.83,-1.43 1.54,-4.05 0.21,-5.69 l -1.52,-1.52 c 15.82,2.5 32.5,1.53 35.49,-11.63 l 0.02,-1.71 c 7.89,2.01 15.89,3.27 24.04,3.38 33.42,0.5 25.17,-37.47 6.68,-49.27 -36.56,-23.26 -72.95,-31.18 -98.09,-71.16 -10.72,-15.78 -11.91,-30.42 -4.06,-43.9"
         style="fill:#e6e6d7;fill-opacity:1;fill-rule:nonzero;stroke:none"
         id="mao-direita" />
      <path
         d="m 2249.33,2909.32 -0.01,0.68 c 1.45,0.19 2.91,0.36 4.38,0.5 0.03,0 0.06,0 0.09,0 0.12,0 0.22,-0.02 0.3,-0.06 -1.6,-0.34 -3.18,-0.71 -4.76,-1.12"
         style="fill:#d8dad1;fill-opacity:1;fill-rule:nonzero;stroke:none"
         id="path72" />
      <path
         d="m 2126.13,2801.82 c -0.39,0 -0.74,0.62 -0.46,1.17 21.65,49.13 67.27,99.46 123.65,107.01 l 0.01,-0.68 c 1.58,0.41 3.16,0.78 4.76,1.12 0.67,-0.33 0.26,-1.86 -0.49,-2 -55.48,-14.33 -102.57,-55.48 -126.95,-106.14 -0.14,-0.34 -0.34,-0.48 -0.52,-0.48"
         style="fill:#bfc0ad;fill-opacity:1;fill-rule:nonzero;stroke:none"
         id="path74" />
      <path
         d="m 2213.82,2922.66 0.03,0.03 c 0.04,-0.01 0.09,-0.01 0.13,-0.01 -0.05,0 -0.11,-0.01 -0.16,-0.02"
         style="fill:#d8dad1;fill-opacity:1;fill-rule:nonzero;stroke:none"
         id="path76" />
      <path
         d="m 2087.41,2836.47 -0.49,0.52 c 25.81,43.42 71.82,85.71 125.34,85.71 0.53,0 1.06,0 1.59,-0.01 l -0.03,-0.03 c 0.05,0.01 0.11,0.02 0.16,0.02 1.68,-0.02 3.36,-0.09 5.05,-0.21 l -0.13,-1.62 c -55.47,-2.85 -100.8,-41.17 -131.49,-84.38"
         style="fill:#bfc0ad;fill-opacity:1;fill-rule:nonzero;stroke:none"
         id="path78" />
      <path
         d="m 2149.93,2932 c 0.26,0.48 0.5,0.96 0.73,1.46 0.38,0.09 0.76,0.19 1.15,0.28 l 0.04,-0.91 c -0.39,-0.18 -0.77,-0.36 -1.15,-0.54 -0.25,-0.09 -0.51,-0.19 -0.77,-0.29"
         style="fill:#d8dad1;fill-opacity:1;fill-rule:nonzero;stroke:none"
         id="path80" />
      <path
         d="m 2058.08,2854.5 -0.43,0.3 c 17.55,39.53 50.48,67.87 93.01,78.66 -0.23,-0.5 -0.47,-0.98 -0.73,-1.46 0.26,0.1 0.52,0.2 0.77,0.29 -39.02,-18.35 -71.15,-39.47 -92.62,-77.79"
         style="fill:#bfc0ad;fill-opacity:1;fill-rule:nonzero;stroke:none"
         id="path82" />
      <path
         d="m 1015.38,1935.46 c -24.474,-1.77 -48.439,-0.7 -72.751,2.22 -20.156,2.42 -46.953,-1.63 -64.848,7.9 -1.875,1 -0.718,4.15 0.434,5.22 11.187,10.06 25.816,19.44 39.605,29.68 56.352,61.28 -97.715,279.45 -60.117,353.93 11.953,23.68 424.787,86.81 641.177,212.07 349.45,202.24 475.66,219.02 503.63,239.9 -0.59,-1.25 -19.69,-63.25 -31.84,-68.6 9.79,-0.77 21.59,-1.53 32.62,-3.65 8.79,-3.85 17.05,-8.53 24.84,-13.75 l -1.56,-1.13 c -17.19,-5.05 -34.78,-6.34 -51.81,-12.87 -1.86,-0.7 -3.71,-1.52 -5.53,-2.29 12.83,-1.26 27.69,-1.13 41.87,-0.98 29.16,0.28 55.42,0.57 55.14,-11.31 -17.36,-2.61 -403.07,-406.79 -463.81,-438.93 -0.49,-0.24 -253.24,-193.48 -292.21,-222.76 -50.27,-37.72 -236.62,-70.58 -294.84,-74.65"
         style="fill:#e2552a;fill-opacity:1;fill-rule:nonzero;stroke:none"
         id="path84" />
      <path
         d="m 1075.31,2395.55 c 0.01,0.02 0.02,0.03 0.04,0.05 31.51,8.06 64.89,16.87 99,26.49 -0.03,-0.02 -0.06,-0.04 -0.08,-0.07 -34.1,-9.61 -67.46,-18.41 -98.96,-26.47"
         style="fill:#d89f87;fill-opacity:1;fill-rule:nonzero;stroke:none"
         id="path86" />
      <path
         d="m 1997.58,2683.02 c -0.01,0 -0.02,0 -0.04,0 0.02,0 0.03,0 0.04,0 v 0 m 0.01,0 c 2.26,0 4.51,0.01 6.77,0.03 -2.26,-0.02 -4.51,-0.03 -6.77,-0.03 m 7.24,0.03 c 1.91,0.01 3.82,0.03 5.72,0.05 -1.9,-0.02 -3.81,-0.04 -5.72,-0.05 m 6.82,0.06 c 4.27,0.04 8.48,0.08 12.55,0.08 -4.06,0 -8.28,-0.04 -12.55,-0.08 m 12.59,0.08 c -0.01,0 -0.02,0 -0.03,0 v 0 c 0.01,0 0.02,0 0.03,0 m -54.58,0.85 c -0.03,0.01 -0.05,0.01 -0.07,0.01 0.02,0 0.04,0 0.07,-0.01"
         style="fill:#c08e70;fill-opacity:1;fill-rule:nonzero;stroke:none"
         id="path88" />
      <path
         d="m 1984.76,2777.38 c 0,0 0.01,0.01 0.01,0.02 7.46,3.02 13.08,5.7 16.94,8.4 -3.88,-2.71 -9.44,-5.38 -16.95,-8.42"
         style="fill:#d89f87;fill-opacity:1;fill-rule:nonzero;stroke:none"
         id="path90" />
      <path
         d="m 1339.74,2032.48 c 0.71,59.1 -7.1,116.64 -38.91,167.27 -0.01,0.02 -0.02,0.03 -0.03,0.05 -0.04,0.06 -0.07,0.12 -0.12,0.19 -0.02,0.04 -0.04,0.07 -0.07,0.12 -0.03,0.04 -0.06,0.1 -0.09,0.14 -0.06,0.09 -0.12,0.19 -0.18,0.28 v 0 c -9.53,15.03 -24.19,35.39 -41.81,56.38 10.94,13.19 21.54,26.72 32.63,39.72 21.37,25.06 47.78,43.94 75.37,61.56 2.87,1.83 6.65,3.95 10.86,6.33 -21.2,-48.29 -20.57,-105.43 -11.42,-156.63 0.02,-0.13 0.13,-0.19 0.33,-0.19 9.23,0 207.92,137.45 301.4,207.52 46.1,34.57 91.31,70.3 136.04,106.61 45.86,37.24 95.88,68.62 141.8,105.72 4.22,3.4 -46.47,17.09 -73.39,17.09 -1.62,0 -3.15,-0.05 -4.58,-0.15 1.74,1.22 3.32,2.36 4.51,3.28 22.21,17.43 49.9,24.97 71,43.9 4.45,3.99 -19.77,10.14 -32.09,10.14 -1.46,0 -2.75,-0.09 -3.81,-0.27 29.73,21.26 58.58,45.44 77.58,75.84 7.51,3.04 13.07,5.71 16.95,8.42 0.27,0.19 0.54,0.38 0.8,0.58 -0.59,-1.25 -19.69,-63.25 -31.84,-68.6 v 0 0 c 9.79,-0.77 21.59,-1.53 32.62,-3.65 8.79,-3.85 17.05,-8.53 24.84,-13.75 l -1.56,-1.13 c -17.19,-5.05 -34.78,-6.34 -51.81,-12.87 -1.86,-0.7 -3.71,-1.52 -5.53,-2.29 v 0 0 c 0.12,-0.02 0.24,-0.03 0.36,-0.04 0.02,0 0.04,0 0.07,-0.01 8.66,-0.82 18.24,-1.02 27.88,-1.02 0.02,0 0.03,0 0.04,0 v 0 0 h 0.01 c 2.26,0 4.51,0.01 6.77,0.03 0.15,0 0.31,0 0.47,0 1.91,0.01 3.82,0.03 5.72,0.05 0.18,0 0.36,0 0.55,0.01 0.18,0 0.36,0 0.55,0 4.27,0.04 8.49,0.08 12.55,0.08 0.01,0 0.01,0 0.01,0 0.01,0 0.02,0 0.03,0 23.41,0 42.16,-1.33 42,-11.33 0,-0.02 0,-0.04 0,-0.06 -1.31,-0.19 -4.71,-2.67 -9.91,-7.1 -63.75,-54.33 -397.73,-402.11 -453.9,-431.83 -0.42,-0.21 -184.47,-140.9 -262.69,-200.39 m -8.95,20.55 c 0.14,6.38 -0.12,12.76 -0.8,19.13 1.93,-5 1.8,-11.93 0.8,-19.13 M 1113.83,2355 c -0.17,0.01 -0.33,0.02 -0.49,0.04 0.65,1.77 1.35,3.53 2.08,5.27 l 0.23,1.06 c -17.61,1.44 -35.25,5.01 -52.34,10.51 -2.35,1.18 -4.68,2.38 -6.98,3.58 6.33,6.69 12.66,13.4 18.98,20.09 31.5,8.06 64.86,16.86 98.96,26.47 -20.53,-17.56 -45.12,-42.57 -60.44,-67.02"
         style="fill:#c03821;fill-opacity:1;fill-rule:nonzero;stroke:none"
         id="braco-direito" />
      <path
         d="m 718.898,2268.49 c 0,0 -395.257,-316.64 -259.027,-514.06 130.82,-189.57 174.438,-178.52 161.817,-294.64 -12.618,-116.12 -85.895,-263.83 -32.266,-394.57 L 959.988,1096 840.34,2313.11 718.898,2268.49"
         style="fill:#e2552a;fill-opacity:1;fill-rule:nonzero;stroke:none"
         id="path94" />
      <path
         d="m 989.52,925.859 -0.094,-0.371 0.094,0.371"
         style="fill:#57abb4;fill-opacity:1;fill-rule:nonzero;stroke:none"
         id="path96" />
      <path
         d="m 1330.79,2053.03 c 0.14,6.38 -0.12,12.76 -0.8,19.13 1.93,-5 1.8,-11.93 0.8,-19.13 m -183.38,-590.52 c 12.17,-79.81 21.31,-160.1 28.48,-240.47 3.2,-35.72 3.48,-70.58 4.86,-106.26 1.23,-31.79 0.39,-66.92 6.04,-98.26 41.01,17.55 66.52,49.78 90.66,83.13 36.21,50.06 66.15,119.54 95.76,173.57 24.65,44.89 67.33,124.88 124.61,122.76 -2.22,17.15 -16.85,37.04 -24,51.08 -17.4,34.26 -37.38,67.16 -56.43,100.55 -32.11,56.3 -74.39,106.97 -84.84,172.34 -5.82,36.49 -5.55,73.45 -5.59,110.25 -0.13,119.67 42.35,260.55 -26.62,369.33 -31.05,48.97 -116.52,154.44 -181.37,154.28 -21.2,-0.06 -43.79,10.73 -64.3,21.53 -32.44,17.05 -59.693,34.12 -68.076,8.3 -22.895,-70.56 103.846,-386.93 104.586,-460.86 0.72,-75.51 11.49,-148.52 21.33,-223.08 10.49,-79.57 22.85,-158.81 34.9,-238.19"
         style="fill:#e2552a;fill-opacity:1;fill-rule:nonzero;stroke:none"
         id="path98" />
      <path
         d="m 1249.54,1629.7 c 15.53,-3.22 51.82,-3.64 51.02,-2.75 -22.41,24.47 -42.48,44.22 -51.08,77.82 -8.26,32.16 -7.19,69.34 -3.3,102.11 3.67,31 4.51,141.55 -19.61,194.52 -25.74,56.53 -62.77,115.86 -89.67,171.5 -26.85,55.61 -46.38,128.01 -21.48,187.41 l 0.23,1.06 c -46.54,3.8 -93.28,22.52 -129.627,52.13 -15.894,5.32 -31.543,10.7 -48.765,12.14 -24.848,2.05 -49.766,-5.71 -73.418,-11.88 -67.113,-17.54 -116.035,-61.54 -137.777,-121.11 l -0.04,-0.06 -0.097,-0.26 c -2.789,-7.71 -5.153,-15.63 -7.028,-23.84 -6.156,-23.2 -10.96,-46.7 -19.886,-69.34 -15.856,-40.26 -43.438,-72.14 -73.59,-102.31 -39.77,-39.78 -93.481,-81.35 -109.867,-137.19 -0.606,-2 29.297,10.63 42.621,15.64 -53.496,-53.51 -105.238,-127.71 -71.684,-193.74 27.071,-53.2 72.871,-91.25 111.367,-136.15 20.688,-24.09 39.844,-47.77 56.094,-72.98 11.777,-35.15 3.731,-71.18 -3.008,-109.54 -8.082,-45.78 -15.078,-91.49 -23.925,-137.19 -17.184,-88.94 -53.672,-167.85 -37.598,-260.47 1.055,-5.94 17.109,40.4 25.156,57.17 -1.441,-68.8 18.149,-144.269 71.723,-178.589 2.437,-1.539 -2.66,39.258 -6.914,57.059 3.961,-5.231 8.593,-10.438 13.941,-15.77 20.551,-20.539 62.149,-39.961 88.789,-48.008 35.473,-10.723 61.309,-15.172 100.18,-16.711 82.558,-3.371 163.223,-11.812 237.753,13.219 29.69,9.949 55.66,25.301 81.52,42.621 24.2,16.238 68.77,62.809 66.56,63.089 -18.18,2.05 -35.09,3.99 -37.87,4.13 6.94,6.43 13.44,13.48 19.96,20.3 21.08,22.05 40.22,48.18 57.58,73.25 36.9,53.2 55.12,115.46 61.17,179.33 10.84,114.41 -29.82,239.77 -119.43,313.39"
         style="fill:#fffeef;fill-opacity:1;fill-rule:nonzero;stroke:none"
         id="path100" />
      <path
         d="m 647.266,2204.54 c 0.718,1.23 1.445,2.47 2.175,3.69 1.059,0.47 2.122,0.95 3.188,1.43 -1.766,-1.68 -3.555,-3.39 -5.363,-5.12"
         style="fill:#7d321a;fill-opacity:1;fill-rule:nonzero;stroke:none"
         id="path102" />
      <path
         d="m 671.547,2227.31 -0.164,4.62 c 0.047,0.12 0.09,0.26 0.137,0.39 1.367,-0.44 2.738,-0.87 4.109,-1.28 -1.34,-1.22 -2.699,-2.46 -4.082,-3.73"
         style="fill:#d8dad1;fill-opacity:1;fill-rule:nonzero;stroke:none"
         id="path104" />
      <path
         d="m 668.707,2224.71 c 0.66,1.76 1.324,3.52 2.008,5.28 0.219,0.65 0.441,1.3 0.668,1.94 l 0.164,-4.62 c -0.938,-0.86 -1.883,-1.72 -2.84,-2.6"
         style="fill:#7d321a;fill-opacity:1;fill-rule:nonzero;stroke:none"
         id="path106" />
      <path
         d="m 628.367,2166.26 c 5.293,13.15 11.742,25.94 18.899,38.28 1.808,1.73 3.597,3.44 5.363,5.12 3.672,1.66 7.398,3.4 11.144,5.24 -4.582,-7.67 -8.043,-15.97 -9.933,-24.81 -0.317,-1.46 0.734,-2.38 1.976,-2.38 0.313,0 0.633,0.06 0.954,0.18 15.437,5.94 28.113,14.2 44.714,17.82 -0.789,-2.19 -1.613,-4.38 -2.472,-6.56 -2.793,-7.1 -5.949,-13.93 -9.422,-20.53 -3.582,-1.06 -7.199,-2.12 -10.832,-3.19 1.711,1.95 3.496,3.85 5.351,5.68 0.223,0.21 -0.023,0.31 -0.664,0.31 -5.507,0 -39.996,-7.38 -55.078,-15.16 m 38.512,53.5 c 0.605,1.65 1.215,3.3 1.828,4.95 0.957,0.88 1.902,1.74 2.84,2.6 1.383,1.27 2.742,2.51 4.082,3.73 0.039,-0.02 0.074,-0.03 0.117,-0.04 -3.203,-3.55 -6.18,-7.3 -8.867,-11.24"
         style="fill:#be4924;fill-opacity:1;fill-rule:nonzero;stroke:none"
         id="path108" />
      <path
         d="m 689.59,2178.62 c 3.473,6.6 6.629,13.43 9.422,20.53 0.859,2.18 1.683,4.37 2.472,6.56 0.661,0.15 1.329,0.29 2.004,0.42 0.914,0.18 1.778,0.3 2.672,0.46 -5.09,-8.47 -9.117,-17.63 -12.305,-26.72 -1.417,-0.42 -2.839,-0.83 -4.265,-1.25 m 349.26,107.81 c -2.56,2.65 -5.33,5.06 -8.26,7.25 4.92,-2.01 9.9,-3.85 14.93,-5.52 -2.22,-0.58 -4.45,-1.15 -6.67,-1.73 m -36.32,20.86 c -2.04,0.61 -4.096,1.17 -6.175,1.69 0.309,0.46 0.614,0.92 0.918,1.38 1.739,-1.05 3.487,-2.07 5.257,-3.07"
         style="fill:#d7d8bf;fill-opacity:1;fill-rule:nonzero;stroke:none"
         id="path110" />
      <path
         d="m 1436.92,2549.23 c 0.92,3.51 1.59,7.09 2.04,10.62 -0.49,5.85 -1.61,11.65 -3.34,17.31 -4.69,11.07 -12.15,20 -21.45,26.97 14.51,0.75 29.18,1.14 43.93,0.9 -7.07,10.68 -15.61,20.33 -25.86,28.85 -13.93,6.97 -29.48,12.68 -45.39,16.51 16.3,5.7 31.81,12.81 44.86,21.9 2.11,2.79 4.06,5.74 5.76,8.83 -23.85,5.48 -46.07,8.01 -69.24,18.62 -29,13.3 -58.73,28.94 -85.86,45.74 -22.18,13.73 -45.37,24.24 -70.52,30.84 20.37,20.45 35.27,45.28 44.57,75.52 6.81,50.14 8.94,101.39 3.34,151.48 -0.73,3.86 -1.49,7.73 -2.35,11.48 -4.51,20.08 -9.63,40.25 -15.78,59.88 -3.83,12.37 -5.37,26.4 -9.16,39.2 -2.03,5 -4.26,9.96 -6.56,14.89 -10.65,7.69 -74.83,-16.42 -85.04,-19.32 -40.8,-11.55 -84.22,-28.9 -119.94,-52 -35.375,-22.88 -69.028,-49.22 -96.196,-81.57 -9.937,-11.88 -17.089,-25.77 -22.515,-40.5 -13.422,8.56 -27.817,15.99 -44.34,22.29 -44.078,16.87 -89.703,25.86 -136.988,24.22 -49.36,-1.69 -98.52,-21.6 -138.536,-52.54 -33.71,39.71 -79.042,67.81 -130.824,86.21 -79.453,28.2 -164.508,24.85 -247.265,24.23 -1.168,-0.03 -2.633,-1.7 -2.11,-2.88 l 1.02,-1.92 -0.063,-0.43 c 6.797,-12.21 9.614,-35.26 10.981,-47.95 2.359,-21.35 6.719,-42.63 10.894,-63.7 7.563,-37.62 21.953,-73.84 38.11,-108.54 17.73,-37.94 44.332,-71.52 74.136,-101.99 -15.601,-10.71 -29.863,-23.6 -43.496,-37.76 -22.515,-23.43 -44.648,-44.69 -72.461,-61.99 -12.554,-7.88 -29.254,-17.11 -46.582,-23.15 -17.246,-8.22 -36.754,-13.71 -52.656,-8.85 l 0.356,-0.68 c 13.843,-16.27 29.644,-29.31 46.968,-38.81 -3.043,-1.45 -6.074,-2.97 -9.097,-4.59 -4.786,-2.58 -9.864,-5.37 -14.844,-8.48 -10.781,-11.59 -21.313,-22.98 -28.402,-35.95 l 1.757,0.03 c 22.032,5.99 44.575,8.61 67.211,8.6 -17.367,-10.46 -32.773,-23.22 -45.004,-43.3 l -0.449,-1.03 c 22.227,14.88 49.024,14.61 75.606,6.42 57.226,-8.09 117.675,-45.93 158.949,-72.6 25.855,-16.76 54.234,-29.49 79.355,-47.54 28.692,-20.56 58.77,-38.12 90.289,-54.04 63.086,-31.83 128.047,-65.93 199.922,-70.96 76.778,-5.35 140.879,5.01 205.317,47.7 2.207,1.5 2.422,4.08 1.132,5.1 11.407,9.07 22.125,19.73 32.829,30.37 45.076,44.72 87.986,91.47 131.856,137.44 22.81,23.91 46.09,47.76 72.95,67.19 24.28,17.6 51.72,31.13 75.59,48.71 14.62,10.81 34.23,16.54 54.31,19.34 18.24,4.57 37.17,6.05 56.7,2.83 22.74,-3.77 44.9,-12.17 60.86,-27.39 l 0.72,0.24"
         style="fill:#e2552a;fill-opacity:1;fill-rule:nonzero;stroke:none"
         id="path112" />
      <path
         d="m 588.063,2389.41 c -47.965,29.62 -86.895,65.36 -118.485,87.16 -57.984,39.97 -143.398,44.5 -143.398,44.5 12.406,20.91 31.449,25.8 31.449,25.8 -6.949,-0.17 -13.801,-0.26 -20.492,-0.26 -119.832,0 -197.879,26.99 -212.321,32.4 53.61,-9.2 107.782,-10.71 162.008,-14.05 6.34,-0.39 12.668,-0.56 18.992,-0.56 18.75,0 37.446,1.48 56.133,2.95 18.692,1.47 37.379,2.95 56.125,2.95 3.778,0 7.563,-0.07 11.352,-0.19 -10.332,-7.07 -40.238,-31.63 -31.621,-32.27 62.793,-4.61 111.832,-42.13 166.406,-69.27 1.246,-0.62 2.535,-0.93 3.785,-0.93 2.484,0 4.809,1.22 6.328,3.59 21.184,32.91 46.953,62.73 75.992,88.99 -7.906,-18.01 -15.711,-36.09 -23.976,-53.98 -8.988,-31.04 -24.516,-59.82 -33.832,-90.94 -2.59,-8.69 -4.047,-17.33 -4.445,-25.89 m 372.488,90.43 c -4.824,4.92 -29.762,43.31 -61.379,86.48 0.183,-0.15 0.363,-0.29 0.547,-0.43 10.855,-8.6 22.027,-22.99 36.187,-26.56 2.809,-0.71 5.512,-1.04 8.133,-1.04 24.469,0.01 41.453,28.47 62.001,41.15 38.74,23.89 86.14,31.57 129.85,41.27 5.17,1.16 -25.53,29.69 -41.86,32.84 38.73,10.64 77.95,19.09 118.26,23.2 8.59,0.87 17.11,1.23 25.61,1.23 25.73,0 51.16,-3.32 77.05,-5.78 17.46,-1.67 42.05,-4.8 66.88,-4.79 11.07,0 22.18,0.62 32.74,2.27 -33.19,-11.13 -76.08,-6.99 -127.49,-9.58 -64.12,-3.21 -102.13,-33.27 -102.13,-33.27 l 36.25,-16.6 c -1.34,0.04 -2.71,0.06 -4.09,0.06 -75.29,0 -201.85,-58.19 -242.43,-111.96 -4.231,-5.61 -8.946,-11.83 -14.129,-18.49"
         style="fill:#be4924;fill-opacity:1;fill-rule:nonzero;stroke:none"
         id="path114" />
      <path
         d="m 203.176,3034.99 -0.063,-0.43 c 6.797,-12.21 9.614,-35.26 10.981,-47.95 2.359,-21.35 6.719,-42.63 10.894,-63.7 7.563,-37.62 21.953,-73.84 38.11,-108.54 11.832,-25.39 27.715,-48.75 45.816,-70.58 -4.781,37.22 6.816,113.96 8.399,112.65 17.191,-14.16 32.285,-30.43 47.484,-46.67 -0.609,31.08 -12.598,60.41 -23.828,89.07 -0.625,1.67 53.261,-13.18 80.523,-17.87 -2.051,23.45 -26.465,39.38 -44.234,51.58 -3.012,2.06 88.101,-15.64 120.347,-44.94 -4.078,33.8 -26.289,60.19 -49.57,84.06 -1.656,1.68 87.188,-6.01 123.067,-30.05 -32.286,33.27 -73.297,57.52 -119.571,73.94 -79.453,28.2 -164.508,24.85 -247.265,24.23 -1.168,-0.03 -2.633,-1.7 -2.11,-2.88 l 1.02,-1.92"
         style="fill:#452e25;fill-opacity:1;fill-rule:nonzero;stroke:none"
         id="path116" />
      <path
         d="m 991.844,3015.64 c -23.961,-20.48 -37.164,-49.65 -47.418,-78.95 54.058,39.4 119.174,52.86 185.444,55.77 2.66,0.11 -24.96,-45.38 -28.22,-69.62 25.94,9.83 69.34,63.11 71.31,61.45 41.58,-35.23 78.12,-100.25 73.44,-158.34 3.81,8.16 7.22,16.73 10.02,25.89 6.81,50.14 8.94,101.39 3.34,151.48 -0.73,3.86 -1.49,7.73 -2.35,11.48 -4.51,20.08 -9.63,40.25 -15.78,59.88 -3.83,12.37 -5.37,26.4 -9.16,39.2 -2.03,5 -4.26,9.96 -6.56,14.89 -10.65,7.69 -74.83,-16.42 -85.04,-19.32 -40.8,-11.55 -84.22,-28.9 -119.94,-52 -27.367,-17.68 -53.672,-37.49 -76.782,-60.55 13.965,9.13 50.469,21.1 47.696,18.74"
         style="fill:#452e25;fill-opacity:1;fill-rule:nonzero;stroke:none"
         id="path118" />
      <path
         d="m 1432.24,2633.88 c -13.93,6.97 -29.48,12.68 -45.39,16.51 16.3,5.7 31.81,12.81 44.86,21.9 2.11,2.79 4.06,5.74 5.76,8.83 -35.31,-25.04 -86.21,-17.79 -150.39,-21.02 -64.12,-3.21 -102.13,-33.27 -102.13,-33.27 l 36.25,-16.6 c -74.71,2.2 -205.19,-57.15 -246.52,-111.9 -41.274,-54.73 -128.887,-168.55 -246.684,-158.61 -117.793,9.93 -200.469,96.86 -258.418,136.85 -57.984,39.97 -143.398,44.5 -143.398,44.5 12.406,20.91 31.449,25.8 31.449,25.8 -145.234,-3.7 -235.234,33.08 -235.234,33.08 13.843,-16.27 29.644,-29.31 46.968,-38.81 -3.043,-1.45 -6.074,-2.97 -9.097,-4.59 -4.786,-2.58 -9.864,-5.37 -14.844,-8.48 -10.781,-11.59 -21.313,-22.98 -28.402,-35.95 l 1.757,0.03 c 22.032,5.99 44.575,8.61 67.211,8.6 -17.367,-10.46 -32.773,-23.22 -45.004,-43.3 l -0.449,-1.03 c 22.227,14.88 49.024,14.61 75.606,6.42 57.226,-8.09 117.675,-45.93 158.949,-72.6 25.855,-16.76 54.234,-29.49 79.355,-47.54 28.692,-20.56 58.77,-38.12 90.289,-54.04 63.086,-31.83 128.047,-65.93 199.922,-70.96 76.778,-5.35 140.879,5.01 205.317,47.7 2.207,1.5 2.422,4.08 1.132,5.1 11.407,9.07 22.125,19.73 32.829,30.37 45.076,44.72 87.986,91.47 131.856,137.44 22.81,23.91 46.09,47.76 72.95,67.19 24.28,17.6 51.72,31.13 75.59,48.71 14.62,10.81 34.23,16.54 54.31,19.34 18.24,4.57 37.17,6.05 56.7,2.83 22.74,-3.77 44.9,-12.17 60.86,-27.39 l 0.72,0.24 c 0.92,3.51 1.59,7.09 2.04,10.62 -0.49,5.85 -1.61,11.65 -3.34,17.31 -4.69,11.07 -12.15,20 -21.45,26.97 14.51,0.75 29.18,1.14 43.93,0.9 -7.07,10.68 -15.61,20.33 -25.86,28.85"
         style="fill:#f4f3e3;fill-opacity:1;fill-rule:nonzero;stroke:none"
         id="path120" />
      <path
         d="m 996.355,2308.98 c 12.485,18.73 23.105,38.31 32.695,59.45 7.27,16.03 13.58,33.46 11.12,49.75 -63.498,13.31 -131.936,4.47 -192.834,-15.11 -70.805,-22.77 -141.059,-61.24 -189.926,-118.6 13.93,-11.27 29.317,-22.83 45.195,-32.4 -8.164,-4.61 -15.582,-9.98 -19.722,-13.82 -13.906,-12.98 -25.02,-29.37 -29.043,-48.16 -0.395,-1.83 1.348,-2.81 2.93,-2.2 16.05,6.18 29.117,14.86 46.718,18.24 0.914,0.18 1.778,0.3 2.672,0.46 -6.012,-10.02 -10.547,-20.98 -13.965,-31.66 27.016,10.95 60.395,5.12 86.625,-5.78 18.414,-7.61 37.965,-18.54 53.356,-33.08 l 2.109,0.38 c 10.567,16.82 25.918,30.83 40.649,43.69 19.511,17.08 39.351,32.76 62.964,43.83 25.786,12.09 53.032,20.03 80.862,24.59 l -0.02,0.65 c -3.52,10.48 -10.37,18.35 -18.83,24.45 13.26,2.74 26.88,4.05 41.29,2.48 1.92,-0.18 4.3,2.25 2.93,4.07 -11.48,15.44 -28.92,24.12 -47.775,28.77"
         style="fill:#fffeef;fill-opacity:1;fill-rule:nonzero;stroke:none"
         id="path122" />
      <path
         d="m 1153.02,2785.77 1.56,-1.7 c 0.88,-0.98 2.29,-0.53 3.24,-0.01 2.25,1.17 4.36,2.92 6.35,5.04 4.47,7.04 8.96,14.05 13.44,21.14 l 1.05,1.71 c 3.32,6.57 6.35,12.92 9.18,17.4 4.9,7.69 10.1,15.44 14.59,23.53 4.28,8.63 8.01,17.56 10.72,26.56 1.16,5.17 1.82,10.53 1.65,16.11 -1.63,60.7 -22.45,116.61 -35.92,175.03 -5.2,-1.29 -10.45,-2.52 -15.63,-3.99 -21.42,-6.3 -44.08,-12.97 -64.59,-21.85 -19.41,-8.35 -40.45,-18.68 -56.58,-32.55 -7.44,-6.44 -13.59,-12.94 -18.26,-21.59 l -0.8,-1.51 c 25.08,4.5 45.1,2.83 66.72,-3.27 -31.43,-8.76 -61.72,-20.1 -83.97,-46.39 -1.01,-1.19 35.08,0.27 51.82,-4.2 -9.48,-3.38 -18.71,-7.28 -28.03,-11.34 -15.41,-6.78 -30.509,-20.75 -39.455,-35.07 -0.664,-1.03 75.235,-32.66 102.915,-53.74 20.33,-15.38 40.78,-30.65 59.53,-47.72 l 0.47,-1.59"
         style="fill:#fffeef;fill-opacity:1;fill-rule:nonzero;stroke:none"
         id="path124" />
      <path
         d="m 1143.49,2794.96 c -16.25,13.98 -33.3,27.12 -50.47,40.12 -27.57,21 -102.985,52.47 -102.918,53.72 -0.067,-1.25 75.348,-32.72 102.918,-53.72 16.92,-12.8 33.91,-25.52 49.95,-39.27 0.17,-0.28 0.34,-0.57 0.52,-0.85"
         style="fill:#ce4f26;fill-opacity:1;fill-rule:nonzero;stroke:none"
         id="path126" />
      <path
         d="m 1080.81,2988.1 c -10.14,2.3 -20.11,3.54 -30.65,3.54 -8.55,0 -17.47,-0.82 -27.14,-2.55 v 0 c 9.67,1.73 18.59,2.55 27.14,2.55 10.54,0 20.51,-1.24 30.65,-3.54 v 0 m 17.85,56.64 c 0.07,0.03 0.14,0.06 0.2,0.09 -0.06,-0.03 -0.13,-0.06 -0.2,-0.09"
         style="fill:#3e2921;fill-opacity:1;fill-rule:nonzero;stroke:none"
         id="path128" />
      <path
         d="m 1142.97,2795.81 c -16.04,13.75 -33.03,26.47 -49.95,39.27 -27.57,21 -102.985,52.47 -102.918,53.72 0,0.01 0.003,0.01 0.003,0.02 8.946,14.32 24.045,28.29 39.455,35.07 9.32,4.06 18.55,7.96 28.03,11.34 v 0 0 c -16.51,4.4 -51.85,3.05 -51.84,4.16 0,0.01 0.01,0.03 0.02,0.04 22.25,26.29 52.54,37.63 83.97,46.39 v 0 0 c -3,0.84 -5.98,1.61 -8.93,2.28 -10.14,2.3 -20.11,3.54 -30.65,3.54 -8.55,0 -17.47,-0.82 -27.14,-2.55 l 0.8,1.51 c 4.67,8.65 10.82,15.15 18.26,21.59 16.13,13.87 37.17,24.2 56.58,32.55 v 0 c 0.07,0.03 0.14,0.06 0.2,0.09 6.74,2.9 13.92,5.3 20.99,7.8 -16.56,-10.99 -31.32,-24.38 -42.89,-41.28 -3.1,-4.56 0.93,-11.13 6.18,-11.13 0.07,0 0.14,0 0.21,0.01 4.42,0.14 9.13,0.26 13.99,0.26 20.97,0 44.66,-2.39 59.29,-16.65 -28.75,-6.58 -55.96,-15.55 -81.93,-30.24 -6.06,-3.43 -3.89,-11.32 1.77,-13.53 12.37,-4.85 23.4,-9.35 33.52,-16.18 -26.11,-2.4 -51.64,-9.06 -72.56,-25.71 -4.86,-3.87 -1.23,-10.53 3.28,-12.36 31.04,-12.65 56.57,-32.98 79.34,-57.29 9.2,-9.82 16.01,-21.31 22.92,-32.72"
         style="fill:#e8ecce;fill-opacity:1;fill-rule:nonzero;stroke:none"
         id="path130" />
      <path
         d="m 460.344,2827.57 c -0.918,3.44 -1.938,6.82 -3.031,10.16 -5.782,9.02 -13.223,17.07 -21.715,22.67 -5.024,3.29 -10.414,6.57 -16.055,9.43 14.004,2.06 27.93,2.91 42.613,-0.27 -5.738,20.43 -16.383,38.36 -30.191,53.87 -1.137,0.85 -2.192,1.71 -3.344,2.57 -13.277,11.83 -28.633,21.66 -43.183,29.54 -16.208,8.71 -33.907,18.63 -51.637,23.63 -16.61,4.69 -31.887,4.58 -47.774,4.47 -7.132,-0.05 -14.386,-0.1 -21.937,0.28 3.246,-59.4 7.48,-119.49 38.262,-172.05 20.976,-35.89 48.617,-66.69 77.445,-96.34 l 1.266,0.77 c 1.679,1.26 3.261,2.68 4.941,3.97 2.758,4.24 5.449,8.49 8.383,11.51 8.648,8.92 17.461,17.81 26.504,26.29 10.039,9.42 20.41,18.39 31.074,27.03 2.89,12.38 -5.805,24.7 -17.817,36.2 9.883,-1.94 19.258,-3.95 28.989,-7.85 -0.063,4.9 -1.821,10.51 -2.793,14.12"
         style="fill:#fffeef;fill-opacity:1;fill-rule:nonzero;stroke:none"
         id="path132" />
      <path
         d="m 428.621,2926 c -0.09,0.08 -0.183,0.16 -0.277,0.25 0.094,-0.09 0.187,-0.17 0.277,-0.25"
         style="fill:#3e2921;fill-opacity:1;fill-rule:nonzero;stroke:none"
         id="path134" />
      <path
         d="m 379.797,2715.53 v 0 c -11.582,11.92 -22.856,24.15 -33.695,36.7 6.144,-2.87 12.582,-4.56 19.484,-4.56 6.086,0 12.535,1.31 19.465,4.29 22.222,9.52 41.383,30.79 31.094,54.84 -3.809,8.91 -7.915,18.08 -12.465,27.18 2.558,-1.6 5.043,-3.36 7.386,-5.45 1.688,-1.5 3.481,-2.15 5.157,-2.15 4.898,0 8.836,5.5 6.461,11.12 -7.032,16.51 -15.547,32.45 -25.914,46.85 10.054,-1.17 20.015,-3.26 29.878,-7.17 0.844,-0.33 1.645,-0.48 2.399,-0.48 4.516,0 7.324,5.42 6.707,9.59 -3.031,20.82 -11.27,37.61 -22.758,51.73 5.234,-3.76 10.524,-7.5 15.348,-11.77 0.094,-0.09 0.187,-0.17 0.277,-0.25 v 0 c 1.152,-0.86 2.207,-1.72 3.344,-2.57 13.808,-15.51 24.453,-33.44 30.191,-53.87 -6.941,1.5 -13.711,2.1 -20.402,2.1 -7.465,0 -14.828,-0.75 -22.211,-1.83 v 0 0 c 5.641,-2.86 11.031,-6.14 16.055,-9.43 8.492,-5.6 15.933,-13.65 21.715,-22.67 1.093,-3.34 2.113,-6.72 3.031,-10.16 0.972,-3.61 2.73,-9.22 2.793,-14.12 -9.731,3.9 -19.106,5.91 -28.989,7.85 v 0 0 c 10.442,-10 18.375,-20.61 18.372,-31.34 0,-1.62 -0.18,-3.24 -0.555,-4.86 -10.664,-8.64 -21.035,-17.61 -31.074,-27.03 -9.043,-8.48 -17.856,-17.37 -26.504,-26.29 -2.934,-3.02 -5.625,-7.27 -8.383,-11.51 -1.68,-1.29 -3.262,-2.71 -4.941,-3.97 l -1.266,-0.77"
         style="fill:#e8ecce;fill-opacity:1;fill-rule:nonzero;stroke:none"
         id="path136" />
      <path
         d="m 960.637,2832.19 c -3.891,6.9 -8.047,12.53 -13.266,16.07 -11.441,3.6 -25.367,1.42 -39.488,-3.32 -4.199,-1.74 -8.34,-3.6 -12.363,-5.55 -34.692,-16.93 -65.352,-40.61 -91.489,-68.75 4.199,-11.56 10.434,-22.66 16.543,-32.93 2.129,-3.57 4.239,-7.36 6.406,-11.12 22.129,36.82 51.313,70.43 86.704,94.83 20.679,14.29 40.488,2.88 58.394,-11.25 -3.726,7.3 -7.281,14.7 -11.441,22.02"
         style="fill:#452e25;fill-opacity:1;fill-rule:nonzero;stroke:none"
         id="path138" />
      <path
         d="m 647.141,2712.46 c -2.856,5.32 -5.903,10.56 -9.496,15.64 -8.165,11.56 -20.68,23.55 -30.489,33.14 -10.308,8.94 -21.558,16.82 -32.847,23.35 -2.09,0.96 -4.204,1.88 -6.371,2.72 l -0.641,-1.13 -0.567,-1.04 c -3.671,-6.85 -12.167,-24.49 -16.292,-38.01 31.859,-12.59 64.652,-22.7 96.703,-34.67"
         style="fill:#452e25;fill-opacity:1;fill-rule:nonzero;stroke:none"
         id="path140" />
      <path
         d="m 1030.01,2440.26 c -8.59,10.16 -28.89,15.45 -40.467,21.74 -10.645,5.77 -20.996,12.21 -31.02,19.02 -80.195,-110.73 -247.304,-140.38 -369.746,-84.27 -2.886,-24.49 2.953,-48.38 17.422,-69.53 14.668,-13.92 28.535,-23.9 28.692,-24.01 18.847,-15.89 42.66,-36.11 67.714,-51.14 l -1.074,-0.66 c 28.711,-16.93 57.68,-33.82 89.844,-41.47 21.992,-5.24 46.035,-6.32 65.805,6.51 14.531,9.46 25.308,22.99 35.523,36.75 9.77,13.19 19.281,26.98 31.235,38.36 16.128,15.31 35.566,26.8 53.496,39.84 20.796,15.24 54.006,43.61 62.966,73.32 1.27,12.42 -1.09,24.59 -10.39,35.54"
         style="fill:#f4f3e3;fill-opacity:1;fill-rule:nonzero;stroke:none"
         id="path142" />
      <path
         d="m 758.234,2696.27 c -38.847,-10.57 -61.171,-37.56 -76.64,-70.02 -0.629,-0.95 -1.196,-1.8 -1.797,-2.74 -6.391,-12.4 -12.324,-25.01 -18.125,-37.72 l -0.371,-0.9 c -11.836,-26.07 -22.914,-52.57 -34.961,-78.65 -8.988,-31.04 -24.516,-59.82 -33.832,-90.94 -2.653,-8.91 -4.117,-17.75 -4.473,-26.52 60.82,-36.56 128.93,-60.95 199.242,-48.61 44.547,7.85 91.778,33.69 124.664,65.07 1.254,1.2 2.582,2.54 3.926,3.97 9.082,11.63 17.348,23.79 25.434,36.08 6.562,11.44 13.043,22.89 19.746,34.12 -7.895,5.25 -147.793,231.8 -202.813,216.86"
         style="fill:#e2552a;fill-opacity:1;fill-rule:nonzero;stroke:none"
         id="path144" />
      <path
         d="m 701.848,2352.36 c -49.129,0 -86.008,27.13 -99.629,38.37 -16.778,13.93 73.375,198.54 97.129,240.5 23.789,41.95 57.144,43.74 57.144,43.74 l 4.766,-225.9 c 0,0 -34.512,-2.74 -69.684,-29.32 -32.172,-24.39 11.852,-67.38 11.852,-67.38 -0.528,-0.01 -1.051,-0.01 -1.578,-0.01"
         style="fill:#ef7739;fill-opacity:1;fill-rule:nonzero;stroke:none"
         id="path146" />
      <path
         d="m 758.68,2432.37 c 0,0 -54.317,-10.74 -65.703,-32.58 -11.407,-21.81 31.269,-69.18 85.664,-71.31 0,0 32.308,2.29 52.25,33.15 19.961,30.82 42.222,90.89 -72.211,70.74"
         style="fill:#452e25;fill-opacity:1;fill-rule:nonzero;stroke:none"
         id="path148" />
      <path
         d="m 702.375,2251.94 c -6.406,3.01 -12.023,6.74 -16.488,10.47 0,0 1.582,-1.01 4.32,-2.44 4.09,-2.75 8.227,-5.4 12.398,-7.9 -0.074,-0.04 -0.152,-0.09 -0.23,-0.13"
         style="fill:#cacbb6;fill-opacity:1;fill-rule:nonzero;stroke:none"
         id="path150" />
      <path
         d="m 702.387,2251.94 c -0.004,0 -0.008,0 -0.012,0 0.078,0.04 0.156,0.09 0.23,0.13 v 0 l -0.218,-0.13"
         style="fill:#d7d8bf;fill-opacity:1;fill-rule:nonzero;stroke:none"
         id="path152" />
      <path
         d="m 730.008,2245.43 c -9.977,0 -19.442,2.67 -27.621,6.51 l 0.218,0.13 v 0 c -4.171,2.5 -8.308,5.15 -12.398,7.9 6.824,-3.57 20.832,-9.8 35.469,-9.8 4.679,0 9.426,0.64 14.019,2.21 24.785,8.37 47.231,31.7 47.231,31.7 l -9.617,44.47 c 0.445,-0.03 0.886,-0.05 1.332,-0.07 0,0 1.172,0.09 3.203,0.43 l 16.152,-35.5 c 0,0 30.496,-21.7 69.524,-21.7 5.3,0 10.757,0.41 16.32,1.31 0,0 11.109,2.62 22.012,13.53 10.914,10.92 88.257,75.31 68.378,106.59 -12.832,20.21 -29.199,27.79 -28.496,48.79 0,0 12.481,-32.82 41.817,-37.27 4.105,-0.62 7.785,-0.88 11.062,-0.88 20.107,0 25.417,9.98 25.417,9.98 0,0 -4.44,-23.39 -31.147,-23.39 -1.524,0 -3.117,0.07 -4.789,0.23 0,0 -1.602,-33.42 -47.067,-80.82 -37.714,-39.37 -44.554,-43.9 -63.992,-43.9 -3.992,0 -8.519,0.19 -13.961,0.32 -31.914,0.65 -69.844,15.09 -69.844,15.09 0,0 -22.847,-25.66 -46.812,-33.32 -5.539,-1.77 -11.051,-2.54 -16.41,-2.54"
         style="fill:#cacbb6;fill-opacity:1;fill-rule:nonzero;stroke:none"
         id="path154" />
      <path
         d="m 778.641,2328.48 c -0.446,0.02 -0.887,0.04 -1.332,0.07 l -4.25,19.67 8.785,-19.31 c -2.031,-0.34 -3.203,-0.43 -3.203,-0.43"
         style="fill:#39271f;fill-opacity:1;fill-rule:nonzero;stroke:none"
         id="path156" />
      <path
         d="m 527.258,2653.74 c 0,0 50.547,-67.83 119.59,-3.7 0,0 -36.977,-39.46 -119.59,3.7"
         style="fill:#452e25;fill-opacity:1;fill-rule:nonzero;stroke:none"
         id="path158" />
      <path
         d="m 854.016,2688.27 c 0,0 50.527,-67.82 119.605,-3.7 0,0 -36.988,-39.46 -119.605,3.7"
         style="fill:#452e25;fill-opacity:1;fill-rule:nonzero;stroke:none"
         id="path160" />
      <path
         d="m 1379.57,2470.85 c -1.23,0 0.52,2.85 1.32,3.14 84.1,31.14 158.38,84.75 235.94,129.25 83.75,48.05 175.19,88.59 266.52,121.26 -6.54,-4.74 -13.15,-9.41 -19.92,-13.84 -98.34,-39.3 -197.85,-89.34 -285.28,-146.95 -60.76,-40.05 -127.07,-76.82 -198.34,-92.83 -0.09,-0.02 -0.17,-0.03 -0.24,-0.03"
         style="fill:#ef7739;fill-opacity:1;fill-rule:nonzero;stroke:none"
         id="path162" />
      <path
         d="m 616.883,496.289 c -0.418,0 -0.723,0.293 -0.797,0.992 -10.219,88.199 -35.141,176.231 -67.246,259 -21.348,55.008 -37.422,101.52 -30.371,161.149 0.133,1.09 2.469,3.711 3.519,3.711 0.309,0 0.508,-0.219 0.5,-0.789 -0.816,-78.911 43.149,-152.801 64.282,-227.102 17.734,-62.379 34.023,-127.289 34.16,-192.441 0,-1.387 -2.66,-4.52 -4.047,-4.52"
         style="fill:#f89c4c;fill-opacity:1;fill-rule:nonzero;stroke:none"
         id="path164" />
      <path
         d="m 1328.25,559.961 c -1.14,0 -8.01,3.828 -16.69,9.449 -33.02,73.231 -66.74,151.02 -71.43,231.93 10.86,-39.5 27.2,-77.59 45.15,-115.031 8.43,-21.25 17.47,-42.309 26.83,-63.278 2.47,-21.449 7.27,-42.519 16.28,-62.859 0.06,-0.141 0.01,-0.211 -0.14,-0.211"
         style="fill:#f7994a;fill-opacity:1;fill-rule:nonzero;stroke:none"
         id="path166" />
      <path
         d="m 1437.6,288.172 c -0.43,0 -0.77,0.226 -0.97,0.769 -34.24,94.571 -79.53,179.629 -120.76,270.918 -1.43,3.172 -2.87,6.352 -4.31,9.551 8.68,-5.621 15.55,-9.449 16.69,-9.449 0.15,0 0.2,0.07 0.14,0.211 -9.01,20.34 -13.81,41.41 -16.28,62.859 46.44,-104.011 100.83,-205.75 127.78,-316.711 0.67,-5.101 1.1,-10.211 1.33,-15.351 -1.11,-1.508 -2.6,-2.797 -3.62,-2.797"
         style="fill:#fffef4;fill-opacity:1;fill-rule:nonzero;stroke:none"
         id="path168" />
      <path
         d="m 1951.01,739.531 c -10.96,26.309 -17.95,54.231 -16.14,82.719 -6.09,77.699 13.52,159.891 -34.31,230.5 -40.57,59.89 -110.61,102.06 -176.82,138.89 -13.52,5.3 -27.28,9.95 -41.23,14.16 75.06,-50.95 161.35,-102.02 211.15,-177.95 32.54,-49.588 25.3,-103.139 25.24,-159.061 -0.06,-55.219 8.28,-85.367 32.11,-129.258"
         style="fill:#e2552a;fill-opacity:1;fill-rule:nonzero;stroke:none"
         id="path170" />
      <path
         d="m 598.895,1573.41 c -6.235,9.13 -13.704,18.72 -22.485,29.55 8.778,-10.82 16.25,-20.42 22.485,-29.53 0,-0.01 0,-0.01 0,-0.02"
         style="fill:#d8dad1;fill-opacity:1;fill-rule:nonzero;stroke:none"
         id="path172" />
      <path
         d="m 1300.83,2199.75 c -0.01,0.02 -0.02,0.04 -0.03,0.05 0.01,-0.02 0.02,-0.03 0.03,-0.05 m -0.15,0.24 c -0.02,0.04 -0.04,0.07 -0.07,0.12 0.03,-0.05 0.05,-0.08 0.07,-0.12 m -0.16,0.26 c -0.06,0.1 -0.12,0.19 -0.18,0.28 0.06,-0.09 0.12,-0.19 0.18,-0.28"
         style="fill:#a0301f;fill-opacity:1;fill-rule:nonzero;stroke:none"
         id="path174" />
      <path
         d="m 598.895,1573.43 c -6.235,9.11 -13.707,18.71 -22.485,29.53 -17.57,21.68 -40.398,48.29 -69.035,85.9 12.508,3.76 26.004,7.79 39.215,12.01 11.57,-12.46 23.469,-24.71 35.047,-37.28 0.039,-0.23 0.09,-0.46 0.148,-0.7 7.695,-29.43 13.965,-59.38 17.11,-89.46"
         style="fill:#be4924;fill-opacity:1;fill-rule:nonzero;stroke:none"
         id="path176" />
      <path
         d="m 1339.23,2061.16 c -22.76,56.81 -55.86,100.96 -105.68,100.96 -8.55,0 -17.6,-1.3 -27.17,-4.07 -16.99,-4.9 -33.63,-13.3 -49.76,-23.68 -5.62,10.53 -11.07,20.99 -16.19,31.33 3.94,2.66 6.48,4.08 7.45,4.11 0.03,0.25 0.05,0.51 0.05,0.76 0.01,1.79 -0.79,3.64 -2.28,5.53 19.88,2.96 39.52,12.87 57.54,26 21.24,15.46 38.68,34.72 55.31,54.77 17.63,-20.96 32.3,-41.3 41.84,-56.34 v 0 c 0.06,-0.09 0.12,-0.18 0.18,-0.28 0.03,-0.05 0.06,-0.1 0.09,-0.14 0.03,-0.05 0.05,-0.08 0.07,-0.12 0.04,-0.06 0.08,-0.13 0.12,-0.19 0.01,-0.01 0.02,-0.03 0.03,-0.05 26.62,-42.38 36.32,-89.64 38.4,-138.59"
         style="fill:#be4924;fill-opacity:1;fill-rule:nonzero;stroke:none"
         id="path178" />
      <path
         d="m 638.953,1637.93 c -14.937,11.8 -29.488,23.87 -46.308,33.32 -1.184,0.66 -2.422,0.96 -3.622,0.96 -4.339,0 -8.187,-3.91 -7.386,-8.62 -11.578,12.57 -23.477,24.82 -35.047,37.28 31.394,10.02 61.137,21.06 71.918,31.82 0.332,0.05 456.032,388.64 521.922,433.01 5.12,-10.34 10.57,-20.8 16.19,-31.33 -37.69,-24.25 -72.64,-59.29 -102.86,-85.67 -61.526,-53.77 -125.701,-104.17 -189.53,-155.18 -64.667,-51.68 -130.019,-103.27 -190.878,-159.43 -32.207,-29.72 -43.403,-58.71 -34.399,-96.16"
         style="fill:#d7d8bf;fill-opacity:1;fill-rule:nonzero;stroke:none"
         id="path180" />
      <path
         d="m 1407.9,2418.47 c -1.54,1.39 -3.09,2.65 -4.55,3.69 -3.01,2.04 -18.56,9.92 -21.91,6.37 5.17,5.49 8.2,12.23 5.23,19.24 -5.68,13.41 -25.37,13.39 -46.68,9.02 -0.02,1 -0.29,1.95 -1.03,2.56 -40.86,33.57 -131.76,-9.43 -163.19,-36.05 -24,-20.3 -54.14,-51.3 -68.42,-79.73 -9.31,-18.57 -16.7,-44.78 -30.91,-60.44 -19.73,-10.52 -44.65,-13.62 -59.97,-31.1 -15.33,-17.42 -12.52,-43.23 -8.18,-63.9 4.71,-22.63 14.57,-46.06 40.29,-46.22 8.79,-0.04 18.34,6.03 25.34,10.69 13.14,8.81 32.65,16.24 47.57,20.45 0.81,0.21 1.98,1.28 3.13,2.66 26.87,-3.22 54.2,8.64 78.57,26.39 35.22,25.64 60,61.75 87.97,94.53 21.37,25.06 47.78,43.94 75.37,61.56 17.74,11.31 70.69,33.76 41.37,60.28"
         style="fill:#e6e6d7;fill-opacity:1;fill-rule:nonzero;stroke:none"
         id="mao-esquerda" />
      <path
         d="m 1226.83,2323.08 c 0,0 6.15,10.35 17.85,24.03 5.84,6.85 13.12,14.46 21.38,22.1 8.23,7.71 17.62,15.25 27.37,22.33 9.92,6.79 20.1,13.38 30.25,18.35 5.02,2.63 9.96,5.02 14.83,6.88 4.82,1.93 9.25,3.94 13.67,5.14 8.57,2.88 15.94,4.41 21.13,5.27 5.16,0.96 8.13,1.35 8.13,1.35 0,0 -2.74,-1.35 -7.47,-3.46 -2.38,-1.03 -5.25,-2.29 -8.55,-3.73 -3.2,-1.7 -6.78,-3.57 -10.74,-5.48 -4.03,-1.81 -8.03,-4.41 -12.48,-6.73 -4.46,-2.27 -8.93,-5.16 -13.62,-7.97 -4.78,-2.66 -9.37,-5.97 -14.21,-9.03 -4.93,-2.98 -9.58,-6.51 -14.34,-9.87 -9.59,-6.64 -18.81,-13.83 -27.46,-20.63 -8.62,-6.87 -16.53,-13.41 -23.28,-19.13 -6.7,-5.75 -12.5,-10.48 -16.31,-13.99 -3.91,-3.46 -6.15,-5.43 -6.15,-5.43"
         style="fill:#bfc0ad;fill-opacity:1;fill-rule:nonzero;stroke:none"
         id="path184" />
      <path
         d="m 1184.6,2350.91 c 0,0 6.19,10.36 17.89,24.04 5.84,6.85 13.11,14.42 21.39,22.09 8.22,7.72 17.59,15.26 27.36,22.33 9.92,6.82 20.08,13.38 30.25,18.34 5.02,2.67 9.93,5.04 14.81,6.9 4.82,1.94 9.28,3.9 13.67,5.13 8.57,2.85 15.96,4.39 21.15,5.28 5.16,0.98 8.11,1.36 8.11,1.36 0,0 -2.72,-1.38 -7.46,-3.46 -2.39,-1.05 -5.24,-2.3 -8.56,-3.72 -3.18,-1.74 -6.76,-3.62 -10.76,-5.5 -3.98,-1.81 -8.03,-4.41 -12.44,-6.72 -4.49,-2.29 -8.93,-5.19 -13.63,-7.97 -4.77,-2.65 -9.38,-5.99 -14.2,-9.04 -4.92,-2.99 -9.55,-6.52 -14.36,-9.88 -9.61,-6.64 -18.83,-13.83 -27.46,-20.6 -8.59,-6.9 -16.54,-13.44 -23.3,-19.15 -6.68,-5.76 -12.48,-10.43 -16.29,-14.02 -3.9,-3.45 -6.17,-5.41 -6.17,-5.41"
         style="fill:#bfc0ad;fill-opacity:1;fill-rule:nonzero;stroke:none"
         id="path186" />
      <path
         d="m 1138.02,2363.21 c 0,0 6.15,10.34 17.89,24.01 5.82,6.85 13.08,14.45 21.33,22.11 8.26,7.7 17.63,15.24 27.38,22.31 9.92,6.83 20.1,13.39 30.27,18.39 5.02,2.63 9.92,5.03 14.81,6.87 4.82,1.92 9.26,3.92 13.65,5.08 8.59,2.9 15.98,4.42 21.15,5.3 5.18,0.99 8.13,1.36 8.13,1.36 0,0 -2.72,-1.36 -7.46,-3.45 -2.39,-1.04 -5.26,-2.3 -8.56,-3.72 -3.2,-1.72 -6.8,-3.61 -10.74,-5.5 -4.02,-1.76 -8.03,-4.41 -12.5,-6.72 -4.43,-2.29 -8.91,-5.17 -13.61,-7.96 -4.75,-2.66 -9.36,-5.99 -14.22,-9.03 -4.91,-2.99 -9.53,-6.56 -14.32,-9.9 -9.59,-6.6 -18.81,-13.81 -27.46,-20.61 -8.61,-6.87 -16.52,-13.42 -23.28,-19.14 -6.72,-5.75 -12.5,-10.43 -16.31,-14 -3.93,-3.46 -6.15,-5.4 -6.15,-5.4"
         style="fill:#bfc0ad;fill-opacity:1;fill-rule:nonzero;stroke:none"
         id="path188" />
      <path
         d="m 1037.22,2217.91 c 1.85,0.57 3.77,1.16 5.64,1.67 17.33,4.49 53.03,7.38 53.58,7.85 -7.06,5.92 -14.57,11.38 -22.7,16.07 -10.59,3.29 -21.99,5.32 -31.46,7.11 12.46,3.9 42.51,44.29 43.24,45.46 -1.66,0.52 -3.56,0.74 -5.37,1.06 -27.87,-7.27 -55.82,-14.37 -83.673,-21.81 -62.993,-16.8 -124.282,-38.39 -185.942,-59.44 -111.25,-37.98 -414.176,-116.39 -454.668,-148.43 -45.836,-36.3 -88.804,-137.11 -108.887,-191.49 -8.984,-24.33 -22.617,-54.35 -20.195,-81.07 1.723,-18.9 5.039,-37.58 8.457,-56.26 2.324,-12.79 9.067,-33.85 10.235,-52.23 9.511,-13.91 20.468,-26.51 32.656,-38.1 8.437,-1.91 18.676,-3.9 30.297,-5.32 -7.11,16.23 -9.336,34.58 -5.957,52.08 0.757,3.96 3.379,-8.88 14.066,-21.72 9.871,-11.86 26.633,-23.72 55.172,-22.34 -5.551,9.35 -10.981,18.76 -15.981,28.47 -1.488,2.86 3.461,-1.32 16.262,-5.49 15.602,-5.09 42.863,-10.18 84.363,-2.55 23.008,12.58 138.442,37.61 162.153,61.26 0.347,0.06 512.122,436.47 529.372,437.12 2.31,17.17 -72.81,40.08 -110.66,48.1"
         style="fill:#e2552a;fill-opacity:1;fill-rule:nonzero;stroke:none"
         id="braco-esquerdo" />
      <path
         d="m 246.98,1875.96 c 6.915,18.73 16.547,42.97 28.075,68.17 -11.528,-25.2 -21.157,-49.44 -28.075,-68.17"
         style="fill:#7f271a;fill-opacity:1;fill-rule:nonzero;stroke:none"
         id="path192" />
      <path
         d="m 308.43,1642.98 c -11.621,1.42 -21.86,3.41 -30.297,5.32 -12.188,11.59 -23.145,24.19 -32.656,38.1 -1.168,18.38 -7.911,39.44 -10.235,52.23 -3.418,18.68 -6.734,37.36 -8.457,56.26 -0.191,2.14 -0.281,4.3 -0.281,6.48 0.016,25.01 12.215,52.21 20.476,74.59 v 0 c 6.918,18.73 16.547,42.97 28.075,68.17 19.933,43.59 45.539,90.09 72.593,116.08 -33.246,-41.12 -59.574,-87.3 -76.918,-137.77 -18.492,-53.85 -29.785,-129.54 1.079,-180.53 0.121,-0.21 0.261,-0.3 0.429,-0.3 4.817,0 27.817,83.53 49.61,115.44 -7.778,-34.09 -2.969,-70.45 12.832,-104.05 0.144,-0.31 0.355,-0.46 0.625,-0.46 4.996,0.01 30.109,51.47 40.523,73.1 0.551,-24.64 11.156,-46.1 40.063,-57.07 11.961,-4.55 24.714,-6.52 37.882,-6.52 53.266,0 113.145,32.2 153.504,55.61 73.825,42.82 339.45,266.08 405.173,329.32 1.72,1.65 -9.6,2.51 -25.973,2.51 -19.704,0 -46.719,-1.24 -67.09,-3.79 22.754,15.99 46.933,30.19 70.918,44.84 4.496,2.75 -22.371,6.46 -45.739,6.46 -8.988,0 -17.461,-0.55 -23.425,-1.91 52.035,31.62 103.439,64.34 152.519,100.35 2.17,0.56 4.34,1.12 6.49,1.69 1.81,-0.32 3.71,-0.54 5.37,-1.06 -0.73,-1.17 -30.78,-41.56 -43.24,-45.46 v 0 0 c 9.47,-1.79 20.87,-3.82 31.46,-7.11 8.13,-4.69 15.64,-10.15 22.7,-16.07 -0.55,-0.47 -36.25,-3.36 -53.58,-7.85 -1.87,-0.51 -3.79,-1.1 -5.64,-1.67 v 0 0 c 37.29,-7.9 110.77,-30.26 110.71,-47.34 0,-0.25 -0.02,-0.51 -0.05,-0.76 -0.97,-0.03 -3.51,-1.45 -7.45,-4.11 -65.89,-44.37 -521.59,-432.96 -521.922,-433.01 -10.781,-10.76 -40.524,-21.8 -71.918,-31.82 -13.211,-4.22 -26.707,-8.25 -39.215,-12.01 h -0.004 c -23.141,-6.96 -42.867,-12.98 -51.016,-17.43 -15.253,-2.8 -28.585,-3.89 -40.121,-3.89 -19.843,0 -34.375,3.22 -44.242,6.44 -9.863,3.21 -15.062,6.43 -16.25,6.43 -0.176,0 -0.265,-0.07 -0.265,-0.22 0,-0.16 0.086,-0.39 0.253,-0.72 5,-9.71 10.43,-19.12 15.981,-28.47 -1.531,-0.07 -3.023,-0.11 -4.488,-0.11 -25.828,0 -41.34,11.23 -50.684,22.45 -9.344,11.23 -12.519,22.45 -13.68,22.45 -0.168,0 -0.293,-0.23 -0.386,-0.73 -1.043,-5.4 -1.555,-10.88 -1.551,-16.36 0.008,-12.26 2.59,-24.5 7.508,-35.72"
         style="fill:#c03821;fill-opacity:1;fill-rule:nonzero;stroke:none"
         id="path194" />
      <path
         d="m 298.082,1952.29 c -0.746,0 -1.121,0.65 -0.219,1.99 54.453,81.31 104.492,123.68 203.239,151.81 148.246,42.24 292.382,99 441.64,137.7 0.153,0.04 0.285,0.06 0.399,0.06 1.773,0 -0.911,-4.48 -2.196,-4.94 -118.125,-41.29 -236.343,-82.49 -355,-122.23 -172.73,-57.85 -251.422,-122.27 -285.972,-163.33 -0.59,-0.7 -1.34,-1.06 -1.891,-1.06"
         style="fill:#ef7739;fill-opacity:1;fill-rule:nonzero;stroke:none"
         id="path196" />
    </g>
  </g>
</svg>
